M48
;GenerationSoftware,Autodesk,EAGLE,9.6.2*%
;CreationDate,2022-12-16T12:15:46Z*%
FMAT,2
ICI,OFF
METRIC,TZ,000.000
T6C0.350
T5C0.381
T4C1.016
T3C3.000
T2C3.509
T1C4.500
%
G90
M71
T1
X16129Y65989
X16129Y13995
T2
X87363Y13983
X87351Y65994
T3
X37363Y65989
X37363Y13983
T4
X62370Y14420
X59830Y14420
X57290Y14420
X64910Y14420
X69291Y48006
X71831Y48006
X63475Y28473
X66015Y28473
T5
X73152Y54585
X67843Y54432
X54889Y27559
X71425Y31115
X56591Y31217
X59461Y31242
X50267Y31191
X53289Y31191
X54737Y21996
X59258Y21946
X63830Y21946
X67894Y21895
T6
X56591Y39421
X56388Y52984
X57455Y53010
X50571Y47828
X53492Y53010
X55448Y52959
M30