G04 EAGLE Gerber RS-274X export*
G75*
%MOMM*%
%FSLAX34Y34*%
%LPD*%
%INSilkscreen Top*%
%IPPOS*%
%AMOC8*
5,1,8,0,0,1.08239X$1,22.5*%
G01*
%ADD10C,0.101600*%
%ADD11C,0.076200*%
%ADD12C,0.127000*%
%ADD13C,0.254000*%

G36*
X215156Y187335D02*
X215156Y187335D01*
X215213Y187333D01*
X215246Y187347D01*
X215272Y187350D01*
X215301Y187369D01*
X215347Y187388D01*
X242779Y205422D01*
X242783Y205427D01*
X242790Y205430D01*
X244466Y206619D01*
X244484Y206639D01*
X244515Y206660D01*
X245968Y208113D01*
X245983Y208136D01*
X246009Y208162D01*
X247198Y209838D01*
X247209Y209865D01*
X247233Y209897D01*
X247873Y211271D01*
X247878Y211295D01*
X247893Y211323D01*
X248324Y212776D01*
X248325Y212801D01*
X248336Y212831D01*
X248547Y214332D01*
X248545Y214356D01*
X248551Y214388D01*
X248538Y215902D01*
X248792Y295147D01*
X248779Y295203D01*
X248775Y295261D01*
X248766Y295276D01*
X248791Y295629D01*
X248787Y295658D01*
X248777Y295762D01*
X248482Y296777D01*
X248466Y296806D01*
X248451Y296853D01*
X247946Y297781D01*
X247924Y297806D01*
X247899Y297848D01*
X247207Y298647D01*
X247180Y298667D01*
X247147Y298703D01*
X246300Y299335D01*
X246269Y299348D01*
X246230Y299376D01*
X245267Y299812D01*
X245263Y299813D01*
X245260Y299815D01*
X243543Y300552D01*
X243514Y300557D01*
X243478Y300573D01*
X241656Y300989D01*
X241627Y300989D01*
X241588Y300998D01*
X239722Y301078D01*
X239693Y301073D01*
X239653Y301075D01*
X237802Y300818D01*
X237775Y300807D01*
X237735Y300802D01*
X235962Y300216D01*
X235937Y300200D01*
X235899Y300188D01*
X234260Y299292D01*
X234245Y299278D01*
X234221Y299267D01*
X232894Y298319D01*
X232883Y298321D01*
X232827Y298302D01*
X232769Y298292D01*
X232742Y298274D01*
X232719Y298266D01*
X232686Y298236D01*
X232649Y298211D01*
X232425Y297987D01*
X185978Y268545D01*
X185941Y268507D01*
X185898Y268477D01*
X185881Y268446D01*
X185857Y268422D01*
X185841Y268371D01*
X185815Y268325D01*
X185812Y268285D01*
X185803Y268257D01*
X185808Y268225D01*
X185804Y268180D01*
X187074Y257258D01*
X187091Y257212D01*
X187098Y257163D01*
X187120Y257131D01*
X187133Y257095D01*
X187168Y257061D01*
X187196Y257021D01*
X187230Y257002D01*
X187258Y256975D01*
X187305Y256960D01*
X187348Y256936D01*
X187386Y256934D01*
X187423Y256923D01*
X187472Y256930D01*
X187521Y256928D01*
X187563Y256945D01*
X187594Y256949D01*
X187618Y256966D01*
X187656Y256981D01*
X229296Y283387D01*
X230288Y283891D01*
X231337Y284214D01*
X232406Y284350D01*
X233740Y284152D01*
X235049Y283743D01*
X236255Y283148D01*
X236655Y282774D01*
X236944Y282304D01*
X237099Y281774D01*
X237110Y281171D01*
X237110Y281170D01*
X237110Y281169D01*
X237618Y260087D01*
X237619Y260084D01*
X237618Y260081D01*
X237645Y259378D01*
X237536Y258721D01*
X237297Y258100D01*
X236935Y257537D01*
X235805Y256338D01*
X234478Y255328D01*
X205028Y236541D01*
X204991Y236503D01*
X204948Y236473D01*
X204931Y236442D01*
X204907Y236417D01*
X204890Y236367D01*
X204865Y236321D01*
X204862Y236280D01*
X204853Y236252D01*
X204858Y236221D01*
X204854Y236176D01*
X206124Y225254D01*
X206141Y225208D01*
X206148Y225159D01*
X206170Y225127D01*
X206183Y225091D01*
X206219Y225057D01*
X206247Y225016D01*
X206280Y224998D01*
X206308Y224971D01*
X206355Y224956D01*
X206398Y224932D01*
X206436Y224930D01*
X206473Y224919D01*
X206522Y224926D01*
X206571Y224924D01*
X206613Y224941D01*
X206644Y224945D01*
X206668Y224962D01*
X206706Y224977D01*
X233862Y242235D01*
X234448Y242505D01*
X235065Y242659D01*
X235693Y242696D01*
X236124Y242627D01*
X236518Y242456D01*
X236858Y242192D01*
X237122Y241852D01*
X237293Y241458D01*
X237365Y241009D01*
X238125Y218460D01*
X237944Y217150D01*
X237521Y215900D01*
X236872Y214752D01*
X236019Y213745D01*
X234979Y212905D01*
X213912Y198945D01*
X213881Y198912D01*
X213844Y198887D01*
X213823Y198850D01*
X213793Y198819D01*
X213780Y198776D01*
X213758Y198737D01*
X213753Y198686D01*
X213743Y198653D01*
X213747Y198628D01*
X213743Y198593D01*
X214759Y187671D01*
X214777Y187617D01*
X214786Y187562D01*
X214804Y187536D01*
X214814Y187506D01*
X214854Y187466D01*
X214887Y187420D01*
X214914Y187406D01*
X214936Y187384D01*
X214990Y187365D01*
X215040Y187339D01*
X215071Y187338D01*
X215100Y187328D01*
X215156Y187335D01*
G37*
G36*
X139459Y225436D02*
X139459Y225436D01*
X139544Y225439D01*
X139545Y225439D01*
X139547Y225439D01*
X139558Y225445D01*
X139674Y225502D01*
X142713Y227781D01*
X176993Y250381D01*
X177021Y250410D01*
X177056Y250432D01*
X177080Y250472D01*
X177112Y250506D01*
X177124Y250545D01*
X177146Y250581D01*
X177153Y250637D01*
X177163Y250672D01*
X177160Y250695D01*
X177163Y250724D01*
X176401Y261646D01*
X176384Y261703D01*
X176375Y261762D01*
X176359Y261785D01*
X176350Y261812D01*
X176309Y261855D01*
X176275Y261903D01*
X176250Y261917D01*
X176231Y261938D01*
X176175Y261958D01*
X176123Y261987D01*
X176095Y261988D01*
X176068Y261997D01*
X176009Y261991D01*
X175950Y261993D01*
X175920Y261981D01*
X175896Y261979D01*
X175866Y261960D01*
X175816Y261939D01*
X143558Y241111D01*
X143536Y241088D01*
X143497Y241063D01*
X142009Y239601D01*
X141994Y239576D01*
X141966Y239550D01*
X140757Y237848D01*
X140746Y237822D01*
X140723Y237790D01*
X139832Y235903D01*
X139826Y235875D01*
X139809Y235840D01*
X139263Y233826D01*
X139262Y233798D01*
X139251Y233760D01*
X139067Y231682D01*
X139069Y231667D01*
X139066Y231648D01*
X139066Y225806D01*
X139085Y225723D01*
X139104Y225640D01*
X139105Y225639D01*
X139105Y225637D01*
X139160Y225571D01*
X139213Y225505D01*
X139214Y225505D01*
X139215Y225504D01*
X139293Y225469D01*
X139371Y225433D01*
X139372Y225433D01*
X139374Y225433D01*
X139459Y225436D01*
G37*
G36*
X176359Y205879D02*
X176359Y205879D01*
X176369Y205879D01*
X176402Y205896D01*
X176482Y205929D01*
X196548Y218883D01*
X196583Y218919D01*
X196625Y218948D01*
X196643Y218980D01*
X196669Y219007D01*
X196684Y219055D01*
X196708Y219100D01*
X196712Y219143D01*
X196721Y219172D01*
X196717Y219202D01*
X196720Y219244D01*
X195450Y230674D01*
X195432Y230724D01*
X195424Y230777D01*
X195404Y230805D01*
X195392Y230837D01*
X195354Y230874D01*
X195323Y230918D01*
X195293Y230934D01*
X195268Y230958D01*
X195217Y230974D01*
X195170Y230999D01*
X195136Y231000D01*
X195103Y231011D01*
X195050Y231003D01*
X194997Y231005D01*
X194960Y230990D01*
X194931Y230985D01*
X194905Y230967D01*
X194863Y230950D01*
X176321Y218758D01*
X176305Y218740D01*
X176283Y218729D01*
X176246Y218678D01*
X176202Y218632D01*
X176195Y218609D01*
X176180Y218590D01*
X176161Y218501D01*
X176160Y218498D01*
X176156Y218488D01*
X176156Y218485D01*
X176151Y218467D01*
X176152Y218458D01*
X176150Y218448D01*
X175896Y206256D01*
X175912Y206182D01*
X175923Y206106D01*
X175929Y206097D01*
X175932Y206086D01*
X175979Y206027D01*
X176023Y205965D01*
X176032Y205959D01*
X176039Y205950D01*
X176108Y205918D01*
X176175Y205882D01*
X176186Y205881D01*
X176196Y205876D01*
X176272Y205878D01*
X176348Y205875D01*
X176359Y205879D01*
G37*
D10*
X597436Y186182D02*
X591566Y186182D01*
X591566Y199390D01*
X597436Y199390D01*
X595969Y193520D02*
X591566Y193520D01*
X601476Y186182D02*
X610282Y199390D01*
X601476Y199390D02*
X610282Y186182D01*
X617827Y186182D02*
X617827Y199390D01*
X614158Y199390D02*
X621496Y199390D01*
X626533Y199390D02*
X626533Y186182D01*
X626533Y199390D02*
X630202Y199390D01*
X630322Y199388D01*
X630442Y199382D01*
X630562Y199372D01*
X630681Y199359D01*
X630800Y199341D01*
X630918Y199320D01*
X631035Y199294D01*
X631152Y199265D01*
X631267Y199232D01*
X631381Y199195D01*
X631494Y199155D01*
X631606Y199111D01*
X631716Y199063D01*
X631825Y199012D01*
X631932Y198957D01*
X632037Y198898D01*
X632139Y198837D01*
X632240Y198772D01*
X632339Y198703D01*
X632436Y198632D01*
X632530Y198557D01*
X632621Y198480D01*
X632710Y198399D01*
X632796Y198315D01*
X632880Y198229D01*
X632961Y198140D01*
X633038Y198049D01*
X633113Y197955D01*
X633184Y197858D01*
X633253Y197759D01*
X633318Y197658D01*
X633379Y197556D01*
X633438Y197451D01*
X633493Y197344D01*
X633544Y197235D01*
X633592Y197125D01*
X633636Y197013D01*
X633676Y196900D01*
X633713Y196786D01*
X633746Y196671D01*
X633775Y196554D01*
X633801Y196437D01*
X633822Y196319D01*
X633840Y196200D01*
X633853Y196081D01*
X633863Y195961D01*
X633869Y195841D01*
X633871Y195721D01*
X633871Y189851D01*
X633869Y189731D01*
X633863Y189611D01*
X633853Y189491D01*
X633840Y189372D01*
X633822Y189253D01*
X633801Y189135D01*
X633775Y189018D01*
X633746Y188901D01*
X633713Y188786D01*
X633676Y188672D01*
X633636Y188559D01*
X633592Y188447D01*
X633544Y188337D01*
X633493Y188228D01*
X633438Y188121D01*
X633379Y188017D01*
X633318Y187914D01*
X633253Y187813D01*
X633184Y187714D01*
X633113Y187617D01*
X633038Y187523D01*
X632961Y187432D01*
X632880Y187343D01*
X632796Y187257D01*
X632710Y187173D01*
X632621Y187092D01*
X632530Y187015D01*
X632436Y186940D01*
X632339Y186869D01*
X632240Y186800D01*
X632139Y186735D01*
X632037Y186674D01*
X631932Y186615D01*
X631825Y186560D01*
X631716Y186509D01*
X631606Y186461D01*
X631494Y186417D01*
X631381Y186377D01*
X631267Y186340D01*
X631152Y186307D01*
X631035Y186278D01*
X630918Y186252D01*
X630800Y186231D01*
X630681Y186213D01*
X630562Y186200D01*
X630442Y186190D01*
X630322Y186184D01*
X630202Y186182D01*
X626533Y186182D01*
X640266Y186182D02*
X640266Y199390D01*
X643935Y199390D01*
X644055Y199388D01*
X644175Y199382D01*
X644295Y199372D01*
X644414Y199359D01*
X644533Y199341D01*
X644651Y199320D01*
X644768Y199294D01*
X644885Y199265D01*
X645000Y199232D01*
X645114Y199195D01*
X645227Y199155D01*
X645339Y199111D01*
X645449Y199063D01*
X645558Y199012D01*
X645665Y198957D01*
X645770Y198898D01*
X645872Y198837D01*
X645973Y198772D01*
X646072Y198703D01*
X646169Y198632D01*
X646263Y198557D01*
X646354Y198480D01*
X646443Y198399D01*
X646529Y198315D01*
X646613Y198229D01*
X646694Y198140D01*
X646771Y198049D01*
X646846Y197955D01*
X646917Y197858D01*
X646986Y197759D01*
X647051Y197658D01*
X647112Y197556D01*
X647171Y197451D01*
X647226Y197344D01*
X647277Y197235D01*
X647325Y197125D01*
X647369Y197013D01*
X647409Y196900D01*
X647446Y196786D01*
X647479Y196671D01*
X647508Y196554D01*
X647534Y196437D01*
X647555Y196319D01*
X647573Y196200D01*
X647586Y196081D01*
X647596Y195961D01*
X647602Y195841D01*
X647604Y195721D01*
X647602Y195601D01*
X647596Y195481D01*
X647586Y195361D01*
X647573Y195242D01*
X647555Y195123D01*
X647534Y195005D01*
X647508Y194888D01*
X647479Y194771D01*
X647446Y194656D01*
X647409Y194542D01*
X647369Y194429D01*
X647325Y194317D01*
X647277Y194207D01*
X647226Y194098D01*
X647171Y193991D01*
X647112Y193887D01*
X647051Y193784D01*
X646986Y193683D01*
X646917Y193584D01*
X646846Y193487D01*
X646771Y193393D01*
X646694Y193302D01*
X646613Y193213D01*
X646529Y193127D01*
X646443Y193043D01*
X646354Y192962D01*
X646263Y192885D01*
X646169Y192810D01*
X646072Y192739D01*
X645973Y192670D01*
X645872Y192605D01*
X645770Y192544D01*
X645665Y192485D01*
X645558Y192430D01*
X645449Y192379D01*
X645339Y192331D01*
X645227Y192287D01*
X645114Y192247D01*
X645000Y192210D01*
X644885Y192177D01*
X644768Y192148D01*
X644651Y192122D01*
X644533Y192101D01*
X644414Y192083D01*
X644295Y192070D01*
X644175Y192060D01*
X644055Y192054D01*
X643935Y192052D01*
X640266Y192052D01*
X644669Y192052D02*
X647604Y186182D01*
X659817Y192786D02*
X659820Y193046D01*
X659829Y193305D01*
X659845Y193565D01*
X659867Y193824D01*
X659894Y194082D01*
X659928Y194340D01*
X659969Y194596D01*
X660015Y194852D01*
X660067Y195107D01*
X660126Y195360D01*
X660190Y195612D01*
X660261Y195862D01*
X660337Y196110D01*
X660419Y196356D01*
X660507Y196601D01*
X660601Y196843D01*
X660701Y197083D01*
X660807Y197321D01*
X660918Y197555D01*
X660918Y197556D02*
X660953Y197651D01*
X660991Y197746D01*
X661033Y197839D01*
X661079Y197930D01*
X661128Y198020D01*
X661180Y198108D01*
X661235Y198193D01*
X661294Y198277D01*
X661356Y198358D01*
X661420Y198437D01*
X661488Y198513D01*
X661559Y198587D01*
X661632Y198658D01*
X661708Y198726D01*
X661786Y198792D01*
X661867Y198854D01*
X661950Y198914D01*
X662035Y198970D01*
X662122Y199023D01*
X662211Y199072D01*
X662302Y199118D01*
X662395Y199161D01*
X662489Y199200D01*
X662585Y199236D01*
X662682Y199268D01*
X662780Y199297D01*
X662879Y199321D01*
X662979Y199342D01*
X663079Y199359D01*
X663180Y199373D01*
X663282Y199382D01*
X663384Y199388D01*
X663486Y199390D01*
X663588Y199388D01*
X663690Y199382D01*
X663792Y199373D01*
X663893Y199359D01*
X663993Y199342D01*
X664093Y199321D01*
X664192Y199297D01*
X664290Y199268D01*
X664387Y199236D01*
X664483Y199200D01*
X664577Y199161D01*
X664670Y199118D01*
X664761Y199072D01*
X664850Y199023D01*
X664937Y198970D01*
X665022Y198914D01*
X665105Y198854D01*
X665186Y198792D01*
X665264Y198726D01*
X665340Y198658D01*
X665413Y198587D01*
X665484Y198513D01*
X665552Y198437D01*
X665616Y198358D01*
X665678Y198277D01*
X665737Y198193D01*
X665792Y198108D01*
X665844Y198020D01*
X665893Y197930D01*
X665939Y197839D01*
X665981Y197746D01*
X666019Y197651D01*
X666054Y197556D01*
X666054Y197555D02*
X666165Y197320D01*
X666271Y197083D01*
X666371Y196843D01*
X666465Y196601D01*
X666553Y196356D01*
X666635Y196110D01*
X666711Y195862D01*
X666782Y195611D01*
X666846Y195360D01*
X666905Y195107D01*
X666957Y194852D01*
X667003Y194596D01*
X667044Y194340D01*
X667078Y194082D01*
X667105Y193824D01*
X667127Y193565D01*
X667143Y193305D01*
X667152Y193046D01*
X667155Y192786D01*
X659818Y192786D02*
X659821Y192526D01*
X659830Y192267D01*
X659846Y192007D01*
X659868Y191748D01*
X659895Y191490D01*
X659929Y191232D01*
X659970Y190976D01*
X660016Y190720D01*
X660068Y190465D01*
X660127Y190212D01*
X660191Y189961D01*
X660262Y189710D01*
X660338Y189462D01*
X660420Y189216D01*
X660508Y188971D01*
X660602Y188729D01*
X660702Y188489D01*
X660808Y188252D01*
X660919Y188017D01*
X660918Y188016D02*
X660953Y187921D01*
X660991Y187826D01*
X661033Y187733D01*
X661079Y187642D01*
X661128Y187552D01*
X661180Y187464D01*
X661235Y187379D01*
X661294Y187295D01*
X661356Y187214D01*
X661420Y187135D01*
X661488Y187059D01*
X661559Y186985D01*
X661632Y186914D01*
X661708Y186846D01*
X661786Y186780D01*
X661867Y186718D01*
X661950Y186658D01*
X662035Y186602D01*
X662122Y186549D01*
X662211Y186500D01*
X662302Y186454D01*
X662395Y186411D01*
X662489Y186372D01*
X662585Y186336D01*
X662682Y186304D01*
X662780Y186275D01*
X662879Y186251D01*
X662979Y186230D01*
X663079Y186213D01*
X663180Y186199D01*
X663282Y186190D01*
X663384Y186184D01*
X663486Y186182D01*
X666054Y188016D02*
X666165Y188251D01*
X666271Y188489D01*
X666371Y188729D01*
X666465Y188971D01*
X666553Y189215D01*
X666635Y189462D01*
X666711Y189710D01*
X666782Y189960D01*
X666846Y190212D01*
X666905Y190465D01*
X666957Y190720D01*
X667003Y190975D01*
X667044Y191232D01*
X667078Y191490D01*
X667105Y191748D01*
X667127Y192007D01*
X667143Y192266D01*
X667152Y192526D01*
X667155Y192786D01*
X666054Y188016D02*
X666019Y187921D01*
X665981Y187826D01*
X665939Y187733D01*
X665893Y187642D01*
X665844Y187552D01*
X665792Y187464D01*
X665737Y187379D01*
X665678Y187295D01*
X665616Y187214D01*
X665552Y187135D01*
X665484Y187059D01*
X665413Y186985D01*
X665340Y186914D01*
X665264Y186846D01*
X665186Y186780D01*
X665105Y186718D01*
X665022Y186658D01*
X664937Y186602D01*
X664850Y186549D01*
X664761Y186500D01*
X664670Y186454D01*
X664577Y186411D01*
X664483Y186372D01*
X664387Y186336D01*
X664290Y186304D01*
X664192Y186275D01*
X664093Y186251D01*
X663993Y186230D01*
X663893Y186213D01*
X663792Y186199D01*
X663690Y186190D01*
X663588Y186184D01*
X663486Y186182D01*
X660551Y189117D02*
X666421Y196455D01*
D11*
X539482Y259461D02*
X535305Y259461D01*
X535305Y268859D01*
X539482Y268859D01*
X538438Y264682D02*
X535305Y264682D01*
X544908Y268859D02*
X544908Y259461D01*
X542298Y268859D02*
X547519Y268859D01*
X551615Y267554D02*
X551536Y267387D01*
X551461Y267218D01*
X551390Y267047D01*
X551323Y266875D01*
X551261Y266701D01*
X551202Y266525D01*
X551148Y266349D01*
X551098Y266171D01*
X551052Y265991D01*
X551010Y265811D01*
X550973Y265630D01*
X550940Y265448D01*
X550911Y265266D01*
X550887Y265082D01*
X550867Y264898D01*
X550852Y264714D01*
X550841Y264530D01*
X550834Y264345D01*
X550832Y264160D01*
X551615Y267554D02*
X551645Y267634D01*
X551678Y267713D01*
X551715Y267790D01*
X551755Y267866D01*
X551798Y267940D01*
X551844Y268012D01*
X551894Y268081D01*
X551946Y268149D01*
X552002Y268214D01*
X552060Y268277D01*
X552122Y268336D01*
X552185Y268394D01*
X552252Y268448D01*
X552320Y268499D01*
X552391Y268547D01*
X552464Y268592D01*
X552538Y268634D01*
X552615Y268672D01*
X552693Y268707D01*
X552772Y268739D01*
X552853Y268767D01*
X552935Y268791D01*
X553019Y268812D01*
X553102Y268829D01*
X553187Y268842D01*
X553272Y268851D01*
X553357Y268857D01*
X553443Y268859D01*
X553529Y268857D01*
X553614Y268851D01*
X553699Y268842D01*
X553784Y268829D01*
X553867Y268812D01*
X553951Y268791D01*
X554033Y268767D01*
X554114Y268739D01*
X554193Y268707D01*
X554271Y268672D01*
X554348Y268634D01*
X554422Y268592D01*
X554495Y268547D01*
X554566Y268499D01*
X554634Y268448D01*
X554701Y268394D01*
X554764Y268336D01*
X554826Y268277D01*
X554884Y268214D01*
X554940Y268149D01*
X554992Y268081D01*
X555042Y268012D01*
X555088Y267940D01*
X555131Y267866D01*
X555171Y267790D01*
X555208Y267713D01*
X555241Y267634D01*
X555271Y267554D01*
X555350Y267387D01*
X555425Y267218D01*
X555496Y267047D01*
X555563Y266875D01*
X555625Y266701D01*
X555684Y266525D01*
X555738Y266349D01*
X555788Y266171D01*
X555834Y265991D01*
X555876Y265811D01*
X555913Y265630D01*
X555946Y265448D01*
X555975Y265266D01*
X555999Y265082D01*
X556019Y264898D01*
X556034Y264714D01*
X556045Y264530D01*
X556052Y264345D01*
X556054Y264160D01*
X550832Y264160D02*
X550834Y263975D01*
X550841Y263790D01*
X550852Y263606D01*
X550867Y263422D01*
X550887Y263238D01*
X550911Y263054D01*
X550940Y262872D01*
X550973Y262690D01*
X551010Y262509D01*
X551052Y262329D01*
X551098Y262149D01*
X551148Y261971D01*
X551202Y261795D01*
X551261Y261619D01*
X551323Y261445D01*
X551390Y261273D01*
X551461Y261102D01*
X551536Y260933D01*
X551615Y260766D01*
X551645Y260686D01*
X551678Y260607D01*
X551715Y260530D01*
X551755Y260454D01*
X551798Y260380D01*
X551844Y260308D01*
X551894Y260239D01*
X551947Y260171D01*
X552002Y260106D01*
X552061Y260043D01*
X552122Y259984D01*
X552185Y259926D01*
X552252Y259872D01*
X552320Y259821D01*
X552391Y259773D01*
X552464Y259728D01*
X552538Y259686D01*
X552615Y259648D01*
X552693Y259613D01*
X552772Y259581D01*
X552853Y259553D01*
X552935Y259529D01*
X553019Y259508D01*
X553102Y259491D01*
X553187Y259478D01*
X553272Y259469D01*
X553357Y259463D01*
X553443Y259461D01*
X555270Y260766D02*
X555349Y260933D01*
X555424Y261102D01*
X555495Y261273D01*
X555562Y261445D01*
X555624Y261619D01*
X555683Y261795D01*
X555737Y261971D01*
X555787Y262149D01*
X555833Y262329D01*
X555875Y262509D01*
X555912Y262690D01*
X555945Y262872D01*
X555974Y263054D01*
X555998Y263238D01*
X556018Y263422D01*
X556033Y263606D01*
X556044Y263790D01*
X556051Y263975D01*
X556053Y264160D01*
X555271Y260766D02*
X555241Y260686D01*
X555208Y260607D01*
X555171Y260530D01*
X555131Y260454D01*
X555088Y260380D01*
X555042Y260308D01*
X554992Y260239D01*
X554940Y260171D01*
X554884Y260106D01*
X554826Y260043D01*
X554764Y259984D01*
X554701Y259926D01*
X554634Y259872D01*
X554566Y259821D01*
X554495Y259773D01*
X554422Y259728D01*
X554348Y259686D01*
X554271Y259648D01*
X554193Y259613D01*
X554114Y259581D01*
X554033Y259553D01*
X553951Y259529D01*
X553867Y259508D01*
X553784Y259491D01*
X553699Y259478D01*
X553614Y259469D01*
X553529Y259463D01*
X553443Y259461D01*
X551354Y261549D02*
X555531Y266771D01*
X490093Y295021D02*
X490093Y304419D01*
X490093Y300242D02*
X495314Y300242D01*
X495314Y304419D02*
X495314Y295021D01*
X499541Y299720D02*
X499543Y299905D01*
X499550Y300090D01*
X499561Y300274D01*
X499576Y300458D01*
X499596Y300642D01*
X499620Y300826D01*
X499649Y301008D01*
X499682Y301190D01*
X499719Y301371D01*
X499761Y301551D01*
X499807Y301731D01*
X499857Y301909D01*
X499911Y302085D01*
X499970Y302261D01*
X500032Y302435D01*
X500099Y302607D01*
X500170Y302778D01*
X500245Y302947D01*
X500324Y303114D01*
X500354Y303194D01*
X500387Y303273D01*
X500424Y303350D01*
X500464Y303426D01*
X500507Y303500D01*
X500553Y303572D01*
X500603Y303641D01*
X500655Y303709D01*
X500711Y303774D01*
X500769Y303837D01*
X500831Y303896D01*
X500894Y303954D01*
X500961Y304008D01*
X501029Y304059D01*
X501100Y304107D01*
X501173Y304152D01*
X501247Y304194D01*
X501324Y304232D01*
X501402Y304267D01*
X501481Y304299D01*
X501562Y304327D01*
X501644Y304351D01*
X501728Y304372D01*
X501811Y304389D01*
X501896Y304402D01*
X501981Y304411D01*
X502066Y304417D01*
X502152Y304419D01*
X502238Y304417D01*
X502323Y304411D01*
X502408Y304402D01*
X502493Y304389D01*
X502576Y304372D01*
X502660Y304351D01*
X502742Y304327D01*
X502823Y304299D01*
X502902Y304267D01*
X502980Y304232D01*
X503057Y304194D01*
X503131Y304152D01*
X503204Y304107D01*
X503275Y304059D01*
X503343Y304008D01*
X503410Y303954D01*
X503473Y303896D01*
X503535Y303837D01*
X503593Y303774D01*
X503649Y303709D01*
X503701Y303641D01*
X503751Y303572D01*
X503797Y303500D01*
X503840Y303426D01*
X503880Y303350D01*
X503917Y303273D01*
X503950Y303194D01*
X503980Y303114D01*
X504059Y302947D01*
X504134Y302778D01*
X504205Y302607D01*
X504272Y302435D01*
X504334Y302261D01*
X504393Y302085D01*
X504447Y301909D01*
X504497Y301731D01*
X504543Y301551D01*
X504585Y301371D01*
X504622Y301190D01*
X504655Y301008D01*
X504684Y300826D01*
X504708Y300642D01*
X504728Y300458D01*
X504743Y300274D01*
X504754Y300090D01*
X504761Y299905D01*
X504763Y299720D01*
X499542Y299720D02*
X499544Y299535D01*
X499551Y299350D01*
X499562Y299166D01*
X499577Y298982D01*
X499597Y298798D01*
X499621Y298614D01*
X499650Y298432D01*
X499683Y298250D01*
X499720Y298069D01*
X499762Y297889D01*
X499808Y297709D01*
X499858Y297531D01*
X499912Y297355D01*
X499971Y297179D01*
X500033Y297005D01*
X500100Y296833D01*
X500171Y296662D01*
X500246Y296493D01*
X500325Y296326D01*
X500324Y296326D02*
X500354Y296246D01*
X500387Y296167D01*
X500424Y296090D01*
X500464Y296014D01*
X500507Y295940D01*
X500553Y295868D01*
X500603Y295799D01*
X500656Y295731D01*
X500711Y295666D01*
X500770Y295603D01*
X500831Y295544D01*
X500894Y295486D01*
X500961Y295432D01*
X501029Y295381D01*
X501100Y295333D01*
X501173Y295288D01*
X501247Y295246D01*
X501324Y295208D01*
X501402Y295173D01*
X501481Y295141D01*
X501562Y295113D01*
X501644Y295089D01*
X501728Y295068D01*
X501811Y295051D01*
X501896Y295038D01*
X501981Y295029D01*
X502066Y295023D01*
X502152Y295021D01*
X503980Y296326D02*
X504059Y296493D01*
X504134Y296662D01*
X504205Y296833D01*
X504272Y297005D01*
X504334Y297179D01*
X504393Y297355D01*
X504447Y297531D01*
X504497Y297709D01*
X504543Y297889D01*
X504585Y298069D01*
X504622Y298250D01*
X504655Y298432D01*
X504684Y298614D01*
X504708Y298798D01*
X504728Y298982D01*
X504743Y299166D01*
X504754Y299350D01*
X504761Y299535D01*
X504763Y299720D01*
X503980Y296326D02*
X503950Y296246D01*
X503917Y296167D01*
X503880Y296090D01*
X503840Y296014D01*
X503797Y295940D01*
X503751Y295868D01*
X503701Y295799D01*
X503649Y295731D01*
X503593Y295666D01*
X503535Y295603D01*
X503473Y295544D01*
X503410Y295486D01*
X503343Y295432D01*
X503275Y295381D01*
X503204Y295333D01*
X503131Y295288D01*
X503057Y295246D01*
X502980Y295208D01*
X502902Y295173D01*
X502823Y295141D01*
X502742Y295113D01*
X502660Y295089D01*
X502576Y295068D01*
X502493Y295051D01*
X502408Y295038D01*
X502323Y295029D01*
X502238Y295023D01*
X502152Y295021D01*
X500064Y297109D02*
X504241Y302331D01*
X508773Y298676D02*
X515039Y298676D01*
X511906Y295543D02*
X511906Y301808D01*
X522859Y304419D02*
X522859Y295021D01*
X522859Y300242D02*
X528080Y300242D01*
X528080Y304419D02*
X528080Y295021D01*
X532307Y299720D02*
X532309Y299905D01*
X532316Y300090D01*
X532327Y300274D01*
X532342Y300458D01*
X532362Y300642D01*
X532386Y300826D01*
X532415Y301008D01*
X532448Y301190D01*
X532485Y301371D01*
X532527Y301551D01*
X532573Y301731D01*
X532623Y301909D01*
X532677Y302085D01*
X532736Y302261D01*
X532798Y302435D01*
X532865Y302607D01*
X532936Y302778D01*
X533011Y302947D01*
X533090Y303114D01*
X533120Y303194D01*
X533153Y303273D01*
X533190Y303350D01*
X533230Y303426D01*
X533273Y303500D01*
X533319Y303572D01*
X533369Y303641D01*
X533421Y303709D01*
X533477Y303774D01*
X533535Y303837D01*
X533597Y303896D01*
X533660Y303954D01*
X533727Y304008D01*
X533795Y304059D01*
X533866Y304107D01*
X533939Y304152D01*
X534013Y304194D01*
X534090Y304232D01*
X534168Y304267D01*
X534247Y304299D01*
X534328Y304327D01*
X534410Y304351D01*
X534494Y304372D01*
X534577Y304389D01*
X534662Y304402D01*
X534747Y304411D01*
X534832Y304417D01*
X534918Y304419D01*
X535004Y304417D01*
X535089Y304411D01*
X535174Y304402D01*
X535259Y304389D01*
X535342Y304372D01*
X535426Y304351D01*
X535508Y304327D01*
X535589Y304299D01*
X535668Y304267D01*
X535746Y304232D01*
X535823Y304194D01*
X535897Y304152D01*
X535970Y304107D01*
X536041Y304059D01*
X536109Y304008D01*
X536176Y303954D01*
X536239Y303896D01*
X536301Y303837D01*
X536359Y303774D01*
X536415Y303709D01*
X536467Y303641D01*
X536517Y303572D01*
X536563Y303500D01*
X536606Y303426D01*
X536646Y303350D01*
X536683Y303273D01*
X536716Y303194D01*
X536746Y303114D01*
X536825Y302947D01*
X536900Y302778D01*
X536971Y302607D01*
X537038Y302435D01*
X537100Y302261D01*
X537159Y302085D01*
X537213Y301909D01*
X537263Y301731D01*
X537309Y301551D01*
X537351Y301371D01*
X537388Y301190D01*
X537421Y301008D01*
X537450Y300826D01*
X537474Y300642D01*
X537494Y300458D01*
X537509Y300274D01*
X537520Y300090D01*
X537527Y299905D01*
X537529Y299720D01*
X532308Y299720D02*
X532310Y299535D01*
X532317Y299350D01*
X532328Y299166D01*
X532343Y298982D01*
X532363Y298798D01*
X532387Y298614D01*
X532416Y298432D01*
X532449Y298250D01*
X532486Y298069D01*
X532528Y297889D01*
X532574Y297709D01*
X532624Y297531D01*
X532678Y297355D01*
X532737Y297179D01*
X532799Y297005D01*
X532866Y296833D01*
X532937Y296662D01*
X533012Y296493D01*
X533091Y296326D01*
X533090Y296326D02*
X533120Y296246D01*
X533153Y296167D01*
X533190Y296090D01*
X533230Y296014D01*
X533273Y295940D01*
X533319Y295868D01*
X533369Y295799D01*
X533422Y295731D01*
X533477Y295666D01*
X533536Y295603D01*
X533597Y295544D01*
X533660Y295486D01*
X533727Y295432D01*
X533795Y295381D01*
X533866Y295333D01*
X533939Y295288D01*
X534013Y295246D01*
X534090Y295208D01*
X534168Y295173D01*
X534247Y295141D01*
X534328Y295113D01*
X534410Y295089D01*
X534494Y295068D01*
X534577Y295051D01*
X534662Y295038D01*
X534747Y295029D01*
X534832Y295023D01*
X534918Y295021D01*
X536746Y296326D02*
X536825Y296493D01*
X536900Y296662D01*
X536971Y296833D01*
X537038Y297005D01*
X537100Y297179D01*
X537159Y297355D01*
X537213Y297531D01*
X537263Y297709D01*
X537309Y297889D01*
X537351Y298069D01*
X537388Y298250D01*
X537421Y298432D01*
X537450Y298614D01*
X537474Y298798D01*
X537494Y298982D01*
X537509Y299166D01*
X537520Y299350D01*
X537527Y299535D01*
X537529Y299720D01*
X536746Y296326D02*
X536716Y296246D01*
X536683Y296167D01*
X536646Y296090D01*
X536606Y296014D01*
X536563Y295940D01*
X536517Y295868D01*
X536467Y295799D01*
X536415Y295731D01*
X536359Y295666D01*
X536301Y295603D01*
X536239Y295544D01*
X536176Y295486D01*
X536109Y295432D01*
X536041Y295381D01*
X535970Y295333D01*
X535897Y295288D01*
X535823Y295246D01*
X535746Y295208D01*
X535668Y295173D01*
X535589Y295141D01*
X535508Y295113D01*
X535426Y295089D01*
X535342Y295068D01*
X535259Y295051D01*
X535174Y295038D01*
X535089Y295029D01*
X535004Y295023D01*
X534918Y295021D01*
X532830Y297109D02*
X537007Y302331D01*
X541539Y298676D02*
X547805Y298676D01*
X554665Y295021D02*
X556754Y295021D01*
X554665Y295021D02*
X554576Y295023D01*
X554488Y295029D01*
X554400Y295038D01*
X554312Y295051D01*
X554225Y295068D01*
X554139Y295088D01*
X554054Y295113D01*
X553969Y295140D01*
X553886Y295172D01*
X553805Y295206D01*
X553725Y295245D01*
X553647Y295286D01*
X553570Y295331D01*
X553496Y295379D01*
X553423Y295430D01*
X553353Y295484D01*
X553286Y295542D01*
X553220Y295602D01*
X553158Y295664D01*
X553098Y295730D01*
X553040Y295797D01*
X552986Y295867D01*
X552935Y295940D01*
X552887Y296014D01*
X552842Y296091D01*
X552801Y296169D01*
X552762Y296249D01*
X552728Y296330D01*
X552696Y296413D01*
X552669Y296498D01*
X552644Y296583D01*
X552624Y296669D01*
X552607Y296756D01*
X552594Y296844D01*
X552585Y296932D01*
X552579Y297020D01*
X552577Y297109D01*
X552577Y302331D01*
X552579Y302422D01*
X552585Y302513D01*
X552595Y302604D01*
X552609Y302694D01*
X552626Y302783D01*
X552648Y302871D01*
X552674Y302959D01*
X552703Y303045D01*
X552736Y303130D01*
X552773Y303213D01*
X552813Y303295D01*
X552857Y303375D01*
X552904Y303453D01*
X552955Y303529D01*
X553008Y303602D01*
X553065Y303673D01*
X553126Y303742D01*
X553189Y303807D01*
X553254Y303870D01*
X553323Y303930D01*
X553394Y303988D01*
X553467Y304041D01*
X553543Y304092D01*
X553621Y304139D01*
X553701Y304183D01*
X553783Y304223D01*
X553866Y304260D01*
X553951Y304293D01*
X554037Y304322D01*
X554125Y304348D01*
X554213Y304370D01*
X554302Y304387D01*
X554392Y304401D01*
X554483Y304411D01*
X554574Y304417D01*
X554665Y304419D01*
X556754Y304419D01*
X560545Y304419D02*
X560545Y295021D01*
X560545Y304419D02*
X564722Y304419D01*
X564722Y300242D02*
X560545Y300242D01*
X568235Y298676D02*
X574500Y298676D01*
X571368Y301808D02*
X571368Y295543D01*
X585653Y295021D02*
X587742Y295021D01*
X585653Y295021D02*
X585564Y295023D01*
X585476Y295029D01*
X585388Y295038D01*
X585300Y295051D01*
X585213Y295068D01*
X585127Y295088D01*
X585042Y295113D01*
X584957Y295140D01*
X584874Y295172D01*
X584793Y295206D01*
X584713Y295245D01*
X584635Y295286D01*
X584558Y295331D01*
X584484Y295379D01*
X584411Y295430D01*
X584341Y295484D01*
X584274Y295542D01*
X584208Y295602D01*
X584146Y295664D01*
X584086Y295730D01*
X584028Y295797D01*
X583974Y295867D01*
X583923Y295940D01*
X583875Y296014D01*
X583830Y296091D01*
X583789Y296169D01*
X583750Y296249D01*
X583716Y296330D01*
X583684Y296413D01*
X583657Y296498D01*
X583632Y296583D01*
X583612Y296669D01*
X583595Y296756D01*
X583582Y296844D01*
X583573Y296932D01*
X583567Y297020D01*
X583565Y297109D01*
X583565Y302331D01*
X583567Y302422D01*
X583573Y302513D01*
X583583Y302604D01*
X583597Y302694D01*
X583614Y302783D01*
X583636Y302871D01*
X583662Y302959D01*
X583691Y303045D01*
X583724Y303130D01*
X583761Y303213D01*
X583801Y303295D01*
X583845Y303375D01*
X583892Y303453D01*
X583943Y303529D01*
X583996Y303602D01*
X584053Y303673D01*
X584114Y303742D01*
X584177Y303807D01*
X584242Y303870D01*
X584311Y303930D01*
X584382Y303988D01*
X584455Y304041D01*
X584531Y304092D01*
X584609Y304139D01*
X584689Y304183D01*
X584771Y304223D01*
X584854Y304260D01*
X584939Y304293D01*
X585025Y304322D01*
X585113Y304348D01*
X585201Y304370D01*
X585290Y304387D01*
X585380Y304401D01*
X585471Y304411D01*
X585562Y304417D01*
X585653Y304419D01*
X587742Y304419D01*
X591533Y304419D02*
X591533Y295021D01*
X591533Y304419D02*
X595710Y304419D01*
X595710Y300242D02*
X591533Y300242D01*
X599223Y298676D02*
X605488Y298676D01*
X538184Y209931D02*
X535051Y200533D01*
X541316Y200533D02*
X538184Y209931D01*
X540533Y202883D02*
X535834Y202883D01*
X544717Y205232D02*
X544719Y205417D01*
X544726Y205602D01*
X544737Y205786D01*
X544752Y205970D01*
X544772Y206154D01*
X544796Y206338D01*
X544825Y206520D01*
X544858Y206702D01*
X544895Y206883D01*
X544937Y207063D01*
X544983Y207243D01*
X545033Y207421D01*
X545087Y207597D01*
X545146Y207773D01*
X545208Y207947D01*
X545275Y208119D01*
X545346Y208290D01*
X545421Y208459D01*
X545500Y208626D01*
X545530Y208706D01*
X545563Y208785D01*
X545600Y208862D01*
X545640Y208938D01*
X545683Y209012D01*
X545729Y209084D01*
X545779Y209153D01*
X545831Y209221D01*
X545887Y209286D01*
X545945Y209349D01*
X546007Y209408D01*
X546070Y209466D01*
X546137Y209520D01*
X546205Y209571D01*
X546276Y209619D01*
X546349Y209664D01*
X546423Y209706D01*
X546500Y209744D01*
X546578Y209779D01*
X546657Y209811D01*
X546738Y209839D01*
X546820Y209863D01*
X546904Y209884D01*
X546987Y209901D01*
X547072Y209914D01*
X547157Y209923D01*
X547242Y209929D01*
X547328Y209931D01*
X547414Y209929D01*
X547499Y209923D01*
X547584Y209914D01*
X547669Y209901D01*
X547752Y209884D01*
X547836Y209863D01*
X547918Y209839D01*
X547999Y209811D01*
X548078Y209779D01*
X548156Y209744D01*
X548233Y209706D01*
X548307Y209664D01*
X548380Y209619D01*
X548451Y209571D01*
X548519Y209520D01*
X548586Y209466D01*
X548649Y209408D01*
X548711Y209349D01*
X548769Y209286D01*
X548825Y209221D01*
X548877Y209153D01*
X548927Y209084D01*
X548973Y209012D01*
X549016Y208938D01*
X549056Y208862D01*
X549093Y208785D01*
X549126Y208706D01*
X549156Y208626D01*
X549155Y208626D02*
X549234Y208459D01*
X549309Y208290D01*
X549380Y208119D01*
X549447Y207947D01*
X549509Y207773D01*
X549568Y207597D01*
X549622Y207421D01*
X549672Y207243D01*
X549718Y207063D01*
X549760Y206883D01*
X549797Y206702D01*
X549830Y206520D01*
X549859Y206338D01*
X549883Y206154D01*
X549903Y205970D01*
X549918Y205786D01*
X549929Y205602D01*
X549936Y205417D01*
X549938Y205232D01*
X544717Y205232D02*
X544719Y205047D01*
X544726Y204862D01*
X544737Y204678D01*
X544752Y204494D01*
X544772Y204310D01*
X544796Y204126D01*
X544825Y203944D01*
X544858Y203762D01*
X544895Y203581D01*
X544937Y203401D01*
X544983Y203221D01*
X545033Y203043D01*
X545087Y202867D01*
X545146Y202691D01*
X545208Y202517D01*
X545275Y202345D01*
X545346Y202174D01*
X545421Y202005D01*
X545500Y201838D01*
X545530Y201758D01*
X545563Y201679D01*
X545600Y201602D01*
X545640Y201526D01*
X545683Y201452D01*
X545729Y201380D01*
X545779Y201311D01*
X545832Y201243D01*
X545887Y201178D01*
X545946Y201115D01*
X546007Y201056D01*
X546070Y200998D01*
X546137Y200944D01*
X546205Y200893D01*
X546276Y200845D01*
X546349Y200800D01*
X546423Y200758D01*
X546500Y200720D01*
X546578Y200685D01*
X546657Y200653D01*
X546738Y200625D01*
X546820Y200601D01*
X546904Y200580D01*
X546987Y200563D01*
X547072Y200550D01*
X547157Y200541D01*
X547242Y200535D01*
X547328Y200533D01*
X549155Y201838D02*
X549234Y202005D01*
X549309Y202174D01*
X549380Y202345D01*
X549447Y202517D01*
X549509Y202691D01*
X549568Y202867D01*
X549622Y203043D01*
X549672Y203221D01*
X549718Y203401D01*
X549760Y203581D01*
X549797Y203762D01*
X549830Y203944D01*
X549859Y204126D01*
X549883Y204310D01*
X549903Y204494D01*
X549918Y204678D01*
X549929Y204862D01*
X549936Y205047D01*
X549938Y205232D01*
X549156Y201838D02*
X549126Y201758D01*
X549093Y201679D01*
X549056Y201602D01*
X549016Y201526D01*
X548973Y201452D01*
X548927Y201380D01*
X548877Y201311D01*
X548825Y201243D01*
X548769Y201178D01*
X548711Y201115D01*
X548649Y201056D01*
X548586Y200998D01*
X548519Y200944D01*
X548451Y200893D01*
X548380Y200845D01*
X548307Y200800D01*
X548233Y200758D01*
X548156Y200720D01*
X548078Y200685D01*
X547999Y200653D01*
X547918Y200625D01*
X547836Y200601D01*
X547752Y200580D01*
X547669Y200563D01*
X547584Y200550D01*
X547499Y200541D01*
X547414Y200535D01*
X547328Y200533D01*
X545239Y202621D02*
X549416Y207843D01*
X553949Y204188D02*
X560214Y204188D01*
X557081Y201055D02*
X557081Y207320D01*
X582295Y201295D02*
X585428Y210693D01*
X588560Y201295D01*
X587777Y203645D02*
X583078Y203645D01*
X591961Y205994D02*
X591963Y206179D01*
X591970Y206364D01*
X591981Y206548D01*
X591996Y206732D01*
X592016Y206916D01*
X592040Y207100D01*
X592069Y207282D01*
X592102Y207464D01*
X592139Y207645D01*
X592181Y207825D01*
X592227Y208005D01*
X592277Y208183D01*
X592331Y208359D01*
X592390Y208535D01*
X592452Y208709D01*
X592519Y208881D01*
X592590Y209052D01*
X592665Y209221D01*
X592744Y209388D01*
X592774Y209468D01*
X592807Y209547D01*
X592844Y209624D01*
X592884Y209700D01*
X592927Y209774D01*
X592973Y209846D01*
X593023Y209915D01*
X593075Y209983D01*
X593131Y210048D01*
X593189Y210111D01*
X593251Y210170D01*
X593314Y210228D01*
X593381Y210282D01*
X593449Y210333D01*
X593520Y210381D01*
X593593Y210426D01*
X593667Y210468D01*
X593744Y210506D01*
X593822Y210541D01*
X593901Y210573D01*
X593982Y210601D01*
X594064Y210625D01*
X594148Y210646D01*
X594231Y210663D01*
X594316Y210676D01*
X594401Y210685D01*
X594486Y210691D01*
X594572Y210693D01*
X594658Y210691D01*
X594743Y210685D01*
X594828Y210676D01*
X594913Y210663D01*
X594996Y210646D01*
X595080Y210625D01*
X595162Y210601D01*
X595243Y210573D01*
X595322Y210541D01*
X595400Y210506D01*
X595477Y210468D01*
X595551Y210426D01*
X595624Y210381D01*
X595695Y210333D01*
X595763Y210282D01*
X595830Y210228D01*
X595893Y210170D01*
X595955Y210111D01*
X596013Y210048D01*
X596069Y209983D01*
X596121Y209915D01*
X596171Y209846D01*
X596217Y209774D01*
X596260Y209700D01*
X596300Y209624D01*
X596337Y209547D01*
X596370Y209468D01*
X596400Y209388D01*
X596399Y209388D02*
X596478Y209221D01*
X596553Y209052D01*
X596624Y208881D01*
X596691Y208709D01*
X596753Y208535D01*
X596812Y208359D01*
X596866Y208183D01*
X596916Y208005D01*
X596962Y207825D01*
X597004Y207645D01*
X597041Y207464D01*
X597074Y207282D01*
X597103Y207100D01*
X597127Y206916D01*
X597147Y206732D01*
X597162Y206548D01*
X597173Y206364D01*
X597180Y206179D01*
X597182Y205994D01*
X591961Y205994D02*
X591963Y205809D01*
X591970Y205624D01*
X591981Y205440D01*
X591996Y205256D01*
X592016Y205072D01*
X592040Y204888D01*
X592069Y204706D01*
X592102Y204524D01*
X592139Y204343D01*
X592181Y204163D01*
X592227Y203983D01*
X592277Y203805D01*
X592331Y203629D01*
X592390Y203453D01*
X592452Y203279D01*
X592519Y203107D01*
X592590Y202936D01*
X592665Y202767D01*
X592744Y202600D01*
X592774Y202520D01*
X592807Y202441D01*
X592844Y202364D01*
X592884Y202288D01*
X592927Y202214D01*
X592973Y202142D01*
X593023Y202073D01*
X593076Y202005D01*
X593131Y201940D01*
X593190Y201877D01*
X593251Y201818D01*
X593314Y201760D01*
X593381Y201706D01*
X593449Y201655D01*
X593520Y201607D01*
X593593Y201562D01*
X593667Y201520D01*
X593744Y201482D01*
X593822Y201447D01*
X593901Y201415D01*
X593982Y201387D01*
X594064Y201363D01*
X594148Y201342D01*
X594231Y201325D01*
X594316Y201312D01*
X594401Y201303D01*
X594486Y201297D01*
X594572Y201295D01*
X596399Y202600D02*
X596478Y202767D01*
X596553Y202936D01*
X596624Y203107D01*
X596691Y203279D01*
X596753Y203453D01*
X596812Y203629D01*
X596866Y203805D01*
X596916Y203983D01*
X596962Y204163D01*
X597004Y204343D01*
X597041Y204524D01*
X597074Y204706D01*
X597103Y204888D01*
X597127Y205072D01*
X597147Y205256D01*
X597162Y205440D01*
X597173Y205624D01*
X597180Y205809D01*
X597182Y205994D01*
X596400Y202600D02*
X596370Y202520D01*
X596337Y202441D01*
X596300Y202364D01*
X596260Y202288D01*
X596217Y202214D01*
X596171Y202142D01*
X596121Y202073D01*
X596069Y202005D01*
X596013Y201940D01*
X595955Y201877D01*
X595893Y201818D01*
X595830Y201760D01*
X595763Y201706D01*
X595695Y201655D01*
X595624Y201607D01*
X595551Y201562D01*
X595477Y201520D01*
X595400Y201482D01*
X595322Y201447D01*
X595243Y201415D01*
X595162Y201387D01*
X595080Y201363D01*
X594996Y201342D01*
X594913Y201325D01*
X594828Y201312D01*
X594743Y201303D01*
X594658Y201297D01*
X594572Y201295D01*
X592483Y203383D02*
X596660Y208605D01*
X601193Y204950D02*
X607458Y204950D01*
X625729Y206262D02*
X628340Y206262D01*
X628340Y206263D02*
X628441Y206261D01*
X628542Y206255D01*
X628643Y206245D01*
X628743Y206232D01*
X628843Y206214D01*
X628942Y206193D01*
X629040Y206167D01*
X629137Y206138D01*
X629233Y206106D01*
X629327Y206069D01*
X629420Y206029D01*
X629512Y205985D01*
X629601Y205938D01*
X629689Y205887D01*
X629775Y205833D01*
X629858Y205776D01*
X629940Y205716D01*
X630018Y205652D01*
X630095Y205586D01*
X630168Y205516D01*
X630239Y205444D01*
X630307Y205369D01*
X630372Y205291D01*
X630434Y205211D01*
X630493Y205129D01*
X630549Y205044D01*
X630601Y204957D01*
X630650Y204869D01*
X630696Y204778D01*
X630737Y204686D01*
X630776Y204592D01*
X630810Y204497D01*
X630841Y204401D01*
X630868Y204303D01*
X630892Y204205D01*
X630911Y204105D01*
X630927Y204005D01*
X630939Y203905D01*
X630947Y203804D01*
X630951Y203703D01*
X630951Y203601D01*
X630947Y203500D01*
X630939Y203399D01*
X630927Y203299D01*
X630911Y203199D01*
X630892Y203099D01*
X630868Y203001D01*
X630841Y202903D01*
X630810Y202807D01*
X630776Y202712D01*
X630737Y202618D01*
X630696Y202526D01*
X630650Y202435D01*
X630601Y202346D01*
X630549Y202260D01*
X630493Y202175D01*
X630434Y202093D01*
X630372Y202013D01*
X630307Y201935D01*
X630239Y201860D01*
X630168Y201788D01*
X630095Y201718D01*
X630018Y201652D01*
X629940Y201588D01*
X629858Y201528D01*
X629775Y201471D01*
X629689Y201417D01*
X629601Y201366D01*
X629512Y201319D01*
X629420Y201275D01*
X629327Y201235D01*
X629233Y201198D01*
X629137Y201166D01*
X629040Y201137D01*
X628942Y201111D01*
X628843Y201090D01*
X628743Y201072D01*
X628643Y201059D01*
X628542Y201049D01*
X628441Y201043D01*
X628340Y201041D01*
X625729Y201041D01*
X625729Y210439D01*
X628340Y210439D01*
X628430Y210437D01*
X628519Y210431D01*
X628609Y210422D01*
X628698Y210408D01*
X628786Y210391D01*
X628873Y210370D01*
X628960Y210345D01*
X629045Y210316D01*
X629129Y210284D01*
X629211Y210249D01*
X629292Y210209D01*
X629371Y210167D01*
X629448Y210121D01*
X629523Y210071D01*
X629596Y210019D01*
X629667Y209963D01*
X629735Y209905D01*
X629800Y209843D01*
X629863Y209779D01*
X629923Y209712D01*
X629980Y209643D01*
X630034Y209571D01*
X630085Y209497D01*
X630133Y209421D01*
X630177Y209343D01*
X630218Y209263D01*
X630256Y209181D01*
X630290Y209098D01*
X630320Y209013D01*
X630347Y208927D01*
X630370Y208841D01*
X630389Y208753D01*
X630404Y208664D01*
X630416Y208575D01*
X630424Y208486D01*
X630428Y208396D01*
X630428Y208306D01*
X630424Y208216D01*
X630416Y208127D01*
X630404Y208038D01*
X630389Y207949D01*
X630370Y207861D01*
X630347Y207775D01*
X630320Y207689D01*
X630290Y207604D01*
X630256Y207521D01*
X630218Y207439D01*
X630177Y207359D01*
X630133Y207281D01*
X630085Y207205D01*
X630034Y207131D01*
X629980Y207059D01*
X629923Y206990D01*
X629863Y206923D01*
X629800Y206859D01*
X629735Y206797D01*
X629667Y206739D01*
X629596Y206683D01*
X629523Y206631D01*
X629448Y206581D01*
X629371Y206535D01*
X629292Y206493D01*
X629211Y206453D01*
X629129Y206418D01*
X629045Y206386D01*
X628960Y206357D01*
X628873Y206332D01*
X628786Y206311D01*
X628698Y206294D01*
X628609Y206280D01*
X628519Y206271D01*
X628430Y206265D01*
X628340Y206263D01*
X634437Y205740D02*
X634439Y205925D01*
X634446Y206110D01*
X634457Y206294D01*
X634472Y206478D01*
X634492Y206662D01*
X634516Y206846D01*
X634545Y207028D01*
X634578Y207210D01*
X634615Y207391D01*
X634657Y207571D01*
X634703Y207751D01*
X634753Y207929D01*
X634807Y208105D01*
X634866Y208281D01*
X634928Y208455D01*
X634995Y208627D01*
X635066Y208798D01*
X635141Y208967D01*
X635220Y209134D01*
X635219Y209134D02*
X635249Y209214D01*
X635282Y209293D01*
X635319Y209370D01*
X635359Y209446D01*
X635402Y209520D01*
X635448Y209592D01*
X635498Y209661D01*
X635550Y209729D01*
X635606Y209794D01*
X635664Y209857D01*
X635726Y209916D01*
X635789Y209974D01*
X635856Y210028D01*
X635924Y210079D01*
X635995Y210127D01*
X636068Y210172D01*
X636142Y210214D01*
X636219Y210252D01*
X636297Y210287D01*
X636376Y210319D01*
X636457Y210347D01*
X636539Y210371D01*
X636623Y210392D01*
X636706Y210409D01*
X636791Y210422D01*
X636876Y210431D01*
X636961Y210437D01*
X637047Y210439D01*
X637133Y210437D01*
X637218Y210431D01*
X637303Y210422D01*
X637388Y210409D01*
X637471Y210392D01*
X637555Y210371D01*
X637637Y210347D01*
X637718Y210319D01*
X637797Y210287D01*
X637875Y210252D01*
X637952Y210214D01*
X638026Y210172D01*
X638099Y210127D01*
X638170Y210079D01*
X638238Y210028D01*
X638305Y209974D01*
X638368Y209916D01*
X638430Y209857D01*
X638488Y209794D01*
X638544Y209729D01*
X638596Y209661D01*
X638646Y209592D01*
X638692Y209520D01*
X638735Y209446D01*
X638775Y209370D01*
X638812Y209293D01*
X638845Y209214D01*
X638875Y209134D01*
X638954Y208967D01*
X639029Y208798D01*
X639100Y208627D01*
X639167Y208455D01*
X639229Y208281D01*
X639288Y208105D01*
X639342Y207929D01*
X639392Y207751D01*
X639438Y207571D01*
X639480Y207391D01*
X639517Y207210D01*
X639550Y207028D01*
X639579Y206846D01*
X639603Y206662D01*
X639623Y206478D01*
X639638Y206294D01*
X639649Y206110D01*
X639656Y205925D01*
X639658Y205740D01*
X634437Y205740D02*
X634439Y205555D01*
X634446Y205370D01*
X634457Y205186D01*
X634472Y205002D01*
X634492Y204818D01*
X634516Y204634D01*
X634545Y204452D01*
X634578Y204270D01*
X634615Y204089D01*
X634657Y203909D01*
X634703Y203729D01*
X634753Y203551D01*
X634807Y203375D01*
X634866Y203199D01*
X634928Y203025D01*
X634995Y202853D01*
X635066Y202682D01*
X635141Y202513D01*
X635220Y202346D01*
X635219Y202346D02*
X635249Y202266D01*
X635282Y202187D01*
X635319Y202110D01*
X635359Y202034D01*
X635402Y201960D01*
X635448Y201888D01*
X635498Y201819D01*
X635551Y201751D01*
X635606Y201686D01*
X635665Y201623D01*
X635726Y201564D01*
X635789Y201506D01*
X635856Y201452D01*
X635924Y201401D01*
X635995Y201353D01*
X636068Y201308D01*
X636142Y201266D01*
X636219Y201228D01*
X636297Y201193D01*
X636376Y201161D01*
X636457Y201133D01*
X636539Y201109D01*
X636623Y201088D01*
X636706Y201071D01*
X636791Y201058D01*
X636876Y201049D01*
X636961Y201043D01*
X637047Y201041D01*
X638875Y202346D02*
X638954Y202513D01*
X639029Y202682D01*
X639100Y202853D01*
X639167Y203025D01*
X639229Y203199D01*
X639288Y203375D01*
X639342Y203551D01*
X639392Y203729D01*
X639438Y203909D01*
X639480Y204089D01*
X639517Y204270D01*
X639550Y204452D01*
X639579Y204634D01*
X639603Y204818D01*
X639623Y205002D01*
X639638Y205186D01*
X639649Y205370D01*
X639656Y205555D01*
X639658Y205740D01*
X638875Y202346D02*
X638845Y202266D01*
X638812Y202187D01*
X638775Y202110D01*
X638735Y202034D01*
X638692Y201960D01*
X638646Y201888D01*
X638596Y201819D01*
X638544Y201751D01*
X638488Y201686D01*
X638430Y201623D01*
X638368Y201564D01*
X638305Y201506D01*
X638238Y201452D01*
X638170Y201401D01*
X638099Y201353D01*
X638026Y201308D01*
X637952Y201266D01*
X637875Y201228D01*
X637797Y201193D01*
X637718Y201161D01*
X637637Y201133D01*
X637555Y201109D01*
X637471Y201088D01*
X637388Y201071D01*
X637303Y201058D01*
X637218Y201049D01*
X637133Y201043D01*
X637047Y201041D01*
X634959Y203129D02*
X639136Y208351D01*
X643668Y204696D02*
X649934Y204696D01*
X646801Y201563D02*
X646801Y207828D01*
X667639Y206516D02*
X670250Y206516D01*
X670250Y206517D02*
X670351Y206515D01*
X670452Y206509D01*
X670553Y206499D01*
X670653Y206486D01*
X670753Y206468D01*
X670852Y206447D01*
X670950Y206421D01*
X671047Y206392D01*
X671143Y206360D01*
X671237Y206323D01*
X671330Y206283D01*
X671422Y206239D01*
X671511Y206192D01*
X671599Y206141D01*
X671685Y206087D01*
X671768Y206030D01*
X671850Y205970D01*
X671928Y205906D01*
X672005Y205840D01*
X672078Y205770D01*
X672149Y205698D01*
X672217Y205623D01*
X672282Y205545D01*
X672344Y205465D01*
X672403Y205383D01*
X672459Y205298D01*
X672511Y205211D01*
X672560Y205123D01*
X672606Y205032D01*
X672647Y204940D01*
X672686Y204846D01*
X672720Y204751D01*
X672751Y204655D01*
X672778Y204557D01*
X672802Y204459D01*
X672821Y204359D01*
X672837Y204259D01*
X672849Y204159D01*
X672857Y204058D01*
X672861Y203957D01*
X672861Y203855D01*
X672857Y203754D01*
X672849Y203653D01*
X672837Y203553D01*
X672821Y203453D01*
X672802Y203353D01*
X672778Y203255D01*
X672751Y203157D01*
X672720Y203061D01*
X672686Y202966D01*
X672647Y202872D01*
X672606Y202780D01*
X672560Y202689D01*
X672511Y202600D01*
X672459Y202514D01*
X672403Y202429D01*
X672344Y202347D01*
X672282Y202267D01*
X672217Y202189D01*
X672149Y202114D01*
X672078Y202042D01*
X672005Y201972D01*
X671928Y201906D01*
X671850Y201842D01*
X671768Y201782D01*
X671685Y201725D01*
X671599Y201671D01*
X671511Y201620D01*
X671422Y201573D01*
X671330Y201529D01*
X671237Y201489D01*
X671143Y201452D01*
X671047Y201420D01*
X670950Y201391D01*
X670852Y201365D01*
X670753Y201344D01*
X670653Y201326D01*
X670553Y201313D01*
X670452Y201303D01*
X670351Y201297D01*
X670250Y201295D01*
X667639Y201295D01*
X667639Y210693D01*
X670250Y210693D01*
X670340Y210691D01*
X670429Y210685D01*
X670519Y210676D01*
X670608Y210662D01*
X670696Y210645D01*
X670783Y210624D01*
X670870Y210599D01*
X670955Y210570D01*
X671039Y210538D01*
X671121Y210503D01*
X671202Y210463D01*
X671281Y210421D01*
X671358Y210375D01*
X671433Y210325D01*
X671506Y210273D01*
X671577Y210217D01*
X671645Y210159D01*
X671710Y210097D01*
X671773Y210033D01*
X671833Y209966D01*
X671890Y209897D01*
X671944Y209825D01*
X671995Y209751D01*
X672043Y209675D01*
X672087Y209597D01*
X672128Y209517D01*
X672166Y209435D01*
X672200Y209352D01*
X672230Y209267D01*
X672257Y209181D01*
X672280Y209095D01*
X672299Y209007D01*
X672314Y208918D01*
X672326Y208829D01*
X672334Y208740D01*
X672338Y208650D01*
X672338Y208560D01*
X672334Y208470D01*
X672326Y208381D01*
X672314Y208292D01*
X672299Y208203D01*
X672280Y208115D01*
X672257Y208029D01*
X672230Y207943D01*
X672200Y207858D01*
X672166Y207775D01*
X672128Y207693D01*
X672087Y207613D01*
X672043Y207535D01*
X671995Y207459D01*
X671944Y207385D01*
X671890Y207313D01*
X671833Y207244D01*
X671773Y207177D01*
X671710Y207113D01*
X671645Y207051D01*
X671577Y206993D01*
X671506Y206937D01*
X671433Y206885D01*
X671358Y206835D01*
X671281Y206789D01*
X671202Y206747D01*
X671121Y206707D01*
X671039Y206672D01*
X670955Y206640D01*
X670870Y206611D01*
X670783Y206586D01*
X670696Y206565D01*
X670608Y206548D01*
X670519Y206534D01*
X670429Y206525D01*
X670340Y206519D01*
X670250Y206517D01*
X676347Y205994D02*
X676349Y206179D01*
X676356Y206364D01*
X676367Y206548D01*
X676382Y206732D01*
X676402Y206916D01*
X676426Y207100D01*
X676455Y207282D01*
X676488Y207464D01*
X676525Y207645D01*
X676567Y207825D01*
X676613Y208005D01*
X676663Y208183D01*
X676717Y208359D01*
X676776Y208535D01*
X676838Y208709D01*
X676905Y208881D01*
X676976Y209052D01*
X677051Y209221D01*
X677130Y209388D01*
X677129Y209388D02*
X677159Y209468D01*
X677192Y209547D01*
X677229Y209624D01*
X677269Y209700D01*
X677312Y209774D01*
X677358Y209846D01*
X677408Y209915D01*
X677460Y209983D01*
X677516Y210048D01*
X677574Y210111D01*
X677636Y210170D01*
X677699Y210228D01*
X677766Y210282D01*
X677834Y210333D01*
X677905Y210381D01*
X677978Y210426D01*
X678052Y210468D01*
X678129Y210506D01*
X678207Y210541D01*
X678286Y210573D01*
X678367Y210601D01*
X678449Y210625D01*
X678533Y210646D01*
X678616Y210663D01*
X678701Y210676D01*
X678786Y210685D01*
X678871Y210691D01*
X678957Y210693D01*
X679043Y210691D01*
X679128Y210685D01*
X679213Y210676D01*
X679298Y210663D01*
X679381Y210646D01*
X679465Y210625D01*
X679547Y210601D01*
X679628Y210573D01*
X679707Y210541D01*
X679785Y210506D01*
X679862Y210468D01*
X679936Y210426D01*
X680009Y210381D01*
X680080Y210333D01*
X680148Y210282D01*
X680215Y210228D01*
X680278Y210170D01*
X680340Y210111D01*
X680398Y210048D01*
X680454Y209983D01*
X680506Y209915D01*
X680556Y209846D01*
X680602Y209774D01*
X680645Y209700D01*
X680685Y209624D01*
X680722Y209547D01*
X680755Y209468D01*
X680785Y209388D01*
X680864Y209221D01*
X680939Y209052D01*
X681010Y208881D01*
X681077Y208709D01*
X681139Y208535D01*
X681198Y208359D01*
X681252Y208183D01*
X681302Y208005D01*
X681348Y207825D01*
X681390Y207645D01*
X681427Y207464D01*
X681460Y207282D01*
X681489Y207100D01*
X681513Y206916D01*
X681533Y206732D01*
X681548Y206548D01*
X681559Y206364D01*
X681566Y206179D01*
X681568Y205994D01*
X676347Y205994D02*
X676349Y205809D01*
X676356Y205624D01*
X676367Y205440D01*
X676382Y205256D01*
X676402Y205072D01*
X676426Y204888D01*
X676455Y204706D01*
X676488Y204524D01*
X676525Y204343D01*
X676567Y204163D01*
X676613Y203983D01*
X676663Y203805D01*
X676717Y203629D01*
X676776Y203453D01*
X676838Y203279D01*
X676905Y203107D01*
X676976Y202936D01*
X677051Y202767D01*
X677130Y202600D01*
X677129Y202600D02*
X677159Y202520D01*
X677192Y202441D01*
X677229Y202364D01*
X677269Y202288D01*
X677312Y202214D01*
X677358Y202142D01*
X677408Y202073D01*
X677461Y202005D01*
X677516Y201940D01*
X677575Y201877D01*
X677636Y201818D01*
X677699Y201760D01*
X677766Y201706D01*
X677834Y201655D01*
X677905Y201607D01*
X677978Y201562D01*
X678052Y201520D01*
X678129Y201482D01*
X678207Y201447D01*
X678286Y201415D01*
X678367Y201387D01*
X678449Y201363D01*
X678533Y201342D01*
X678616Y201325D01*
X678701Y201312D01*
X678786Y201303D01*
X678871Y201297D01*
X678957Y201295D01*
X680785Y202600D02*
X680864Y202767D01*
X680939Y202936D01*
X681010Y203107D01*
X681077Y203279D01*
X681139Y203453D01*
X681198Y203629D01*
X681252Y203805D01*
X681302Y203983D01*
X681348Y204163D01*
X681390Y204343D01*
X681427Y204524D01*
X681460Y204706D01*
X681489Y204888D01*
X681513Y205072D01*
X681533Y205256D01*
X681548Y205440D01*
X681559Y205624D01*
X681566Y205809D01*
X681568Y205994D01*
X680785Y202600D02*
X680755Y202520D01*
X680722Y202441D01*
X680685Y202364D01*
X680645Y202288D01*
X680602Y202214D01*
X680556Y202142D01*
X680506Y202073D01*
X680454Y202005D01*
X680398Y201940D01*
X680340Y201877D01*
X680278Y201818D01*
X680215Y201760D01*
X680148Y201706D01*
X680080Y201655D01*
X680009Y201607D01*
X679936Y201562D01*
X679862Y201520D01*
X679785Y201482D01*
X679707Y201447D01*
X679628Y201415D01*
X679547Y201387D01*
X679465Y201363D01*
X679381Y201342D01*
X679298Y201325D01*
X679213Y201312D01*
X679128Y201303D01*
X679043Y201297D01*
X678957Y201295D01*
X676869Y203383D02*
X681046Y208605D01*
X685578Y204950D02*
X691844Y204950D01*
X691261Y292989D02*
X697526Y302387D01*
X691261Y302387D02*
X697526Y292989D01*
X700535Y291945D02*
X704712Y291945D01*
X708564Y292989D02*
X708564Y302387D01*
X708564Y292989D02*
X712741Y292989D01*
X716559Y292989D02*
X716559Y302387D01*
X719692Y297166D01*
X722825Y302387D01*
X722825Y292989D01*
X729141Y292989D02*
X729141Y302387D01*
X731751Y302387D02*
X726530Y302387D01*
X668796Y533160D02*
X667230Y533160D01*
X668796Y533160D02*
X668796Y527939D01*
X665663Y527939D01*
X665574Y527941D01*
X665486Y527947D01*
X665398Y527956D01*
X665310Y527969D01*
X665223Y527986D01*
X665137Y528006D01*
X665052Y528031D01*
X664967Y528058D01*
X664884Y528090D01*
X664803Y528124D01*
X664723Y528163D01*
X664645Y528204D01*
X664568Y528249D01*
X664494Y528297D01*
X664421Y528348D01*
X664351Y528402D01*
X664284Y528460D01*
X664218Y528520D01*
X664156Y528582D01*
X664096Y528648D01*
X664038Y528715D01*
X663984Y528785D01*
X663933Y528858D01*
X663885Y528932D01*
X663840Y529009D01*
X663799Y529087D01*
X663760Y529167D01*
X663726Y529248D01*
X663694Y529331D01*
X663667Y529416D01*
X663642Y529501D01*
X663622Y529587D01*
X663605Y529674D01*
X663592Y529762D01*
X663583Y529850D01*
X663577Y529938D01*
X663575Y530027D01*
X663575Y535249D01*
X663577Y535340D01*
X663583Y535431D01*
X663593Y535522D01*
X663607Y535612D01*
X663624Y535701D01*
X663646Y535789D01*
X663672Y535877D01*
X663701Y535963D01*
X663734Y536048D01*
X663771Y536131D01*
X663811Y536213D01*
X663855Y536293D01*
X663902Y536371D01*
X663953Y536447D01*
X664006Y536520D01*
X664063Y536591D01*
X664124Y536660D01*
X664187Y536725D01*
X664252Y536788D01*
X664321Y536848D01*
X664392Y536906D01*
X664465Y536959D01*
X664541Y537010D01*
X664619Y537057D01*
X664699Y537101D01*
X664781Y537141D01*
X664864Y537178D01*
X664949Y537211D01*
X665035Y537240D01*
X665123Y537266D01*
X665211Y537288D01*
X665300Y537305D01*
X665390Y537319D01*
X665481Y537329D01*
X665572Y537335D01*
X665663Y537337D01*
X668796Y537337D01*
X673329Y537337D02*
X673329Y527939D01*
X678550Y527939D02*
X673329Y537337D01*
X678550Y537337D02*
X678550Y527939D01*
X683082Y527939D02*
X683082Y537337D01*
X685693Y537337D01*
X685793Y537335D01*
X685893Y537329D01*
X685992Y537320D01*
X686092Y537306D01*
X686190Y537289D01*
X686288Y537268D01*
X686385Y537244D01*
X686481Y537215D01*
X686576Y537183D01*
X686669Y537148D01*
X686761Y537109D01*
X686852Y537066D01*
X686940Y537020D01*
X687027Y536970D01*
X687112Y536918D01*
X687195Y536862D01*
X687276Y536803D01*
X687354Y536740D01*
X687430Y536675D01*
X687504Y536607D01*
X687574Y536537D01*
X687642Y536463D01*
X687707Y536387D01*
X687770Y536309D01*
X687829Y536228D01*
X687885Y536145D01*
X687937Y536060D01*
X687987Y535973D01*
X688033Y535885D01*
X688076Y535794D01*
X688115Y535702D01*
X688150Y535609D01*
X688182Y535514D01*
X688211Y535418D01*
X688235Y535321D01*
X688256Y535223D01*
X688273Y535125D01*
X688287Y535025D01*
X688296Y534926D01*
X688302Y534826D01*
X688304Y534726D01*
X688303Y534726D02*
X688303Y530550D01*
X688304Y530550D02*
X688302Y530450D01*
X688296Y530350D01*
X688287Y530251D01*
X688273Y530151D01*
X688256Y530053D01*
X688235Y529955D01*
X688211Y529858D01*
X688182Y529762D01*
X688150Y529667D01*
X688115Y529574D01*
X688076Y529482D01*
X688033Y529391D01*
X687987Y529303D01*
X687937Y529216D01*
X687885Y529131D01*
X687829Y529048D01*
X687770Y528967D01*
X687707Y528889D01*
X687642Y528813D01*
X687574Y528739D01*
X687504Y528669D01*
X687430Y528601D01*
X687354Y528536D01*
X687276Y528473D01*
X687195Y528414D01*
X687112Y528358D01*
X687027Y528306D01*
X686940Y528256D01*
X686852Y528210D01*
X686761Y528167D01*
X686669Y528128D01*
X686576Y528093D01*
X686481Y528061D01*
X686385Y528032D01*
X686288Y528008D01*
X686190Y527987D01*
X686092Y527970D01*
X685992Y527956D01*
X685893Y527947D01*
X685793Y527941D01*
X685693Y527939D01*
X683082Y527939D01*
X721819Y538354D02*
X721914Y538352D01*
X722008Y538346D01*
X722102Y538337D01*
X722196Y538324D01*
X722289Y538307D01*
X722381Y538286D01*
X722473Y538261D01*
X722563Y538233D01*
X722652Y538201D01*
X722740Y538166D01*
X722826Y538127D01*
X722911Y538085D01*
X722994Y538039D01*
X723075Y537990D01*
X723154Y537938D01*
X723231Y537883D01*
X723305Y537824D01*
X723377Y537763D01*
X723447Y537699D01*
X723514Y537632D01*
X723578Y537562D01*
X723639Y537490D01*
X723698Y537416D01*
X723753Y537339D01*
X723805Y537260D01*
X723854Y537179D01*
X723900Y537096D01*
X723942Y537011D01*
X723981Y536925D01*
X724016Y536837D01*
X724048Y536748D01*
X724076Y536658D01*
X724101Y536566D01*
X724122Y536474D01*
X724139Y536381D01*
X724152Y536287D01*
X724161Y536193D01*
X724167Y536099D01*
X724169Y536004D01*
X721819Y538353D02*
X721711Y538351D01*
X721602Y538345D01*
X721494Y538335D01*
X721387Y538322D01*
X721280Y538304D01*
X721173Y538283D01*
X721068Y538258D01*
X720963Y538229D01*
X720860Y538197D01*
X720758Y538160D01*
X720657Y538120D01*
X720558Y538077D01*
X720460Y538030D01*
X720364Y537979D01*
X720270Y537925D01*
X720178Y537868D01*
X720088Y537807D01*
X720000Y537743D01*
X719915Y537677D01*
X719832Y537607D01*
X719752Y537534D01*
X719674Y537458D01*
X719599Y537380D01*
X719527Y537299D01*
X719458Y537215D01*
X719392Y537129D01*
X719329Y537041D01*
X719270Y536950D01*
X719213Y536858D01*
X719160Y536763D01*
X719111Y536667D01*
X719065Y536568D01*
X719022Y536469D01*
X718983Y536367D01*
X718948Y536265D01*
X723385Y534176D02*
X723454Y534245D01*
X723520Y534316D01*
X723584Y534389D01*
X723645Y534465D01*
X723703Y534544D01*
X723757Y534624D01*
X723809Y534707D01*
X723857Y534791D01*
X723903Y534877D01*
X723944Y534965D01*
X723983Y535055D01*
X724018Y535146D01*
X724049Y535238D01*
X724077Y535331D01*
X724101Y535425D01*
X724121Y535520D01*
X724138Y535616D01*
X724151Y535713D01*
X724160Y535810D01*
X724166Y535907D01*
X724168Y536004D01*
X723385Y534176D02*
X718947Y528955D01*
X724168Y528955D01*
X728091Y531043D02*
X730179Y538353D01*
X728091Y531043D02*
X733312Y531043D01*
X731746Y533132D02*
X731746Y528955D01*
X739845Y528955D02*
X736713Y538353D01*
X742978Y538353D02*
X739845Y528955D01*
D12*
X302280Y603400D02*
X302280Y188400D01*
X291280Y188400D01*
X291280Y603400D01*
X302280Y603400D01*
D10*
X394673Y590137D02*
X406357Y590137D01*
X401813Y590137D02*
X394673Y596628D01*
X399217Y592734D02*
X406357Y596628D01*
X397269Y601017D02*
X394673Y604262D01*
X406357Y604262D01*
X406357Y601017D02*
X406357Y607508D01*
D12*
X454430Y553540D02*
X644430Y553540D01*
X454430Y553540D02*
X454430Y564540D01*
X644430Y564540D01*
X644430Y553540D01*
D10*
X631167Y461147D02*
X631167Y449463D01*
X631167Y454007D02*
X637658Y461147D01*
X633764Y456603D02*
X637658Y449463D01*
X648538Y458226D02*
X648536Y458333D01*
X648530Y458439D01*
X648520Y458545D01*
X648507Y458651D01*
X648489Y458757D01*
X648468Y458861D01*
X648443Y458965D01*
X648414Y459068D01*
X648382Y459169D01*
X648345Y459269D01*
X648305Y459368D01*
X648262Y459466D01*
X648215Y459562D01*
X648164Y459656D01*
X648110Y459748D01*
X648053Y459838D01*
X647993Y459926D01*
X647929Y460011D01*
X647862Y460094D01*
X647792Y460175D01*
X647720Y460253D01*
X647644Y460329D01*
X647566Y460401D01*
X647485Y460471D01*
X647402Y460538D01*
X647317Y460602D01*
X647229Y460662D01*
X647139Y460719D01*
X647047Y460773D01*
X646953Y460824D01*
X646857Y460871D01*
X646759Y460914D01*
X646660Y460954D01*
X646560Y460991D01*
X646459Y461023D01*
X646356Y461052D01*
X646252Y461077D01*
X646148Y461098D01*
X646042Y461116D01*
X645936Y461129D01*
X645830Y461139D01*
X645724Y461145D01*
X645617Y461147D01*
X645496Y461145D01*
X645375Y461139D01*
X645255Y461129D01*
X645134Y461116D01*
X645015Y461098D01*
X644895Y461077D01*
X644777Y461052D01*
X644660Y461023D01*
X644543Y460990D01*
X644428Y460954D01*
X644314Y460913D01*
X644201Y460870D01*
X644089Y460822D01*
X643980Y460771D01*
X643872Y460716D01*
X643765Y460658D01*
X643661Y460597D01*
X643559Y460532D01*
X643459Y460464D01*
X643361Y460393D01*
X643265Y460319D01*
X643172Y460242D01*
X643082Y460161D01*
X642994Y460078D01*
X642909Y459992D01*
X642826Y459903D01*
X642747Y459812D01*
X642670Y459718D01*
X642597Y459622D01*
X642527Y459524D01*
X642460Y459423D01*
X642396Y459320D01*
X642336Y459215D01*
X642279Y459108D01*
X642225Y459000D01*
X642175Y458890D01*
X642129Y458778D01*
X642086Y458665D01*
X642047Y458550D01*
X647565Y455954D02*
X647644Y456031D01*
X647720Y456112D01*
X647793Y456195D01*
X647863Y456280D01*
X647930Y456368D01*
X647994Y456458D01*
X648054Y456550D01*
X648111Y456645D01*
X648165Y456741D01*
X648216Y456839D01*
X648263Y456939D01*
X648307Y457041D01*
X648347Y457144D01*
X648383Y457248D01*
X648415Y457354D01*
X648444Y457460D01*
X648469Y457568D01*
X648491Y457676D01*
X648508Y457786D01*
X648522Y457895D01*
X648531Y458005D01*
X648537Y458116D01*
X648539Y458226D01*
X647564Y455954D02*
X642047Y449463D01*
X648538Y449463D01*
D13*
X672997Y178121D02*
X672997Y120621D01*
X672997Y178121D02*
X548997Y178121D01*
X548997Y120621D01*
X672997Y120621D01*
X572997Y121196D02*
X572997Y126196D01*
X649997Y126196D02*
X649997Y121196D01*
D10*
X543939Y124304D02*
X534795Y130400D01*
X534795Y124304D02*
X543939Y130400D01*
X536827Y133956D02*
X534795Y136496D01*
X543939Y136496D01*
X543939Y133956D02*
X543939Y139036D01*
M02*
