G04 EAGLE Gerber RS-274X export*
G75*
%MOMM*%
%FSLAX34Y34*%
%LPD*%
%INBoard Outline*%
%IPPOS*%
%AMOC8*
5,1,8,0,0,1.08239X$1,22.5*%
G01*
%ADD10C,0.000000*%
%ADD11C,0.152400*%
%ADD12C,0.254000*%


D10*
X138790Y659892D02*
X138797Y660444D01*
X138817Y660996D01*
X138851Y661547D01*
X138898Y662097D01*
X138959Y662646D01*
X139034Y663193D01*
X139121Y663739D01*
X139222Y664282D01*
X139337Y664822D01*
X139464Y665359D01*
X139605Y665893D01*
X139759Y666423D01*
X139926Y666950D01*
X140105Y667472D01*
X140298Y667990D01*
X140503Y668502D01*
X140720Y669010D01*
X140950Y669512D01*
X141192Y670008D01*
X141447Y670498D01*
X141713Y670982D01*
X141991Y671459D01*
X142281Y671929D01*
X142582Y672392D01*
X142894Y672848D01*
X143218Y673295D01*
X143552Y673735D01*
X143897Y674166D01*
X144253Y674588D01*
X144619Y675002D01*
X144994Y675407D01*
X145380Y675802D01*
X145775Y676188D01*
X146180Y676563D01*
X146594Y676929D01*
X147016Y677285D01*
X147447Y677630D01*
X147887Y677964D01*
X148334Y678288D01*
X148790Y678600D01*
X149253Y678901D01*
X149723Y679191D01*
X150200Y679469D01*
X150684Y679735D01*
X151174Y679990D01*
X151670Y680232D01*
X152172Y680462D01*
X152680Y680679D01*
X153192Y680884D01*
X153710Y681077D01*
X154232Y681256D01*
X154759Y681423D01*
X155289Y681577D01*
X155823Y681718D01*
X156360Y681845D01*
X156900Y681960D01*
X157443Y682061D01*
X157989Y682148D01*
X158536Y682223D01*
X159085Y682284D01*
X159635Y682331D01*
X160186Y682365D01*
X160738Y682385D01*
X161290Y682392D01*
X161842Y682385D01*
X162394Y682365D01*
X162945Y682331D01*
X163495Y682284D01*
X164044Y682223D01*
X164591Y682148D01*
X165137Y682061D01*
X165680Y681960D01*
X166220Y681845D01*
X166757Y681718D01*
X167291Y681577D01*
X167821Y681423D01*
X168348Y681256D01*
X168870Y681077D01*
X169388Y680884D01*
X169900Y680679D01*
X170408Y680462D01*
X170910Y680232D01*
X171406Y679990D01*
X171896Y679735D01*
X172380Y679469D01*
X172857Y679191D01*
X173327Y678901D01*
X173790Y678600D01*
X174246Y678288D01*
X174693Y677964D01*
X175133Y677630D01*
X175564Y677285D01*
X175986Y676929D01*
X176400Y676563D01*
X176805Y676188D01*
X177200Y675802D01*
X177586Y675407D01*
X177961Y675002D01*
X178327Y674588D01*
X178683Y674166D01*
X179028Y673735D01*
X179362Y673295D01*
X179686Y672848D01*
X179998Y672392D01*
X180299Y671929D01*
X180589Y671459D01*
X180867Y670982D01*
X181133Y670498D01*
X181388Y670008D01*
X181630Y669512D01*
X181860Y669010D01*
X182077Y668502D01*
X182282Y667990D01*
X182475Y667472D01*
X182654Y666950D01*
X182821Y666423D01*
X182975Y665893D01*
X183116Y665359D01*
X183243Y664822D01*
X183358Y664282D01*
X183459Y663739D01*
X183546Y663193D01*
X183621Y662646D01*
X183682Y662097D01*
X183729Y661547D01*
X183763Y660996D01*
X183783Y660444D01*
X183790Y659892D01*
X183783Y659340D01*
X183763Y658788D01*
X183729Y658237D01*
X183682Y657687D01*
X183621Y657138D01*
X183546Y656591D01*
X183459Y656045D01*
X183358Y655502D01*
X183243Y654962D01*
X183116Y654425D01*
X182975Y653891D01*
X182821Y653361D01*
X182654Y652834D01*
X182475Y652312D01*
X182282Y651794D01*
X182077Y651282D01*
X181860Y650774D01*
X181630Y650272D01*
X181388Y649776D01*
X181133Y649286D01*
X180867Y648802D01*
X180589Y648325D01*
X180299Y647855D01*
X179998Y647392D01*
X179686Y646936D01*
X179362Y646489D01*
X179028Y646049D01*
X178683Y645618D01*
X178327Y645196D01*
X177961Y644782D01*
X177586Y644377D01*
X177200Y643982D01*
X176805Y643596D01*
X176400Y643221D01*
X175986Y642855D01*
X175564Y642499D01*
X175133Y642154D01*
X174693Y641820D01*
X174246Y641496D01*
X173790Y641184D01*
X173327Y640883D01*
X172857Y640593D01*
X172380Y640315D01*
X171896Y640049D01*
X171406Y639794D01*
X170910Y639552D01*
X170408Y639322D01*
X169900Y639105D01*
X169388Y638900D01*
X168870Y638707D01*
X168348Y638528D01*
X167821Y638361D01*
X167291Y638207D01*
X166757Y638066D01*
X166220Y637939D01*
X165680Y637824D01*
X165137Y637723D01*
X164591Y637636D01*
X164044Y637561D01*
X163495Y637500D01*
X162945Y637453D01*
X162394Y637419D01*
X161842Y637399D01*
X161290Y637392D01*
X160738Y637399D01*
X160186Y637419D01*
X159635Y637453D01*
X159085Y637500D01*
X158536Y637561D01*
X157989Y637636D01*
X157443Y637723D01*
X156900Y637824D01*
X156360Y637939D01*
X155823Y638066D01*
X155289Y638207D01*
X154759Y638361D01*
X154232Y638528D01*
X153710Y638707D01*
X153192Y638900D01*
X152680Y639105D01*
X152172Y639322D01*
X151670Y639552D01*
X151174Y639794D01*
X150684Y640049D01*
X150200Y640315D01*
X149723Y640593D01*
X149253Y640883D01*
X148790Y641184D01*
X148334Y641496D01*
X147887Y641820D01*
X147447Y642154D01*
X147016Y642499D01*
X146594Y642855D01*
X146180Y643221D01*
X145775Y643596D01*
X145380Y643982D01*
X144994Y644377D01*
X144619Y644782D01*
X144253Y645196D01*
X143897Y645618D01*
X143552Y646049D01*
X143218Y646489D01*
X142894Y646936D01*
X142582Y647392D01*
X142281Y647855D01*
X141991Y648325D01*
X141713Y648802D01*
X141447Y649286D01*
X141192Y649776D01*
X140950Y650272D01*
X140720Y650774D01*
X140503Y651282D01*
X140298Y651794D01*
X140105Y652312D01*
X139926Y652834D01*
X139759Y653361D01*
X139605Y653891D01*
X139464Y654425D01*
X139337Y654962D01*
X139222Y655502D01*
X139121Y656045D01*
X139034Y656591D01*
X138959Y657138D01*
X138898Y657687D01*
X138851Y658237D01*
X138817Y658788D01*
X138797Y659340D01*
X138790Y659892D01*
X138790Y139954D02*
X138797Y140506D01*
X138817Y141058D01*
X138851Y141609D01*
X138898Y142159D01*
X138959Y142708D01*
X139034Y143255D01*
X139121Y143801D01*
X139222Y144344D01*
X139337Y144884D01*
X139464Y145421D01*
X139605Y145955D01*
X139759Y146485D01*
X139926Y147012D01*
X140105Y147534D01*
X140298Y148052D01*
X140503Y148564D01*
X140720Y149072D01*
X140950Y149574D01*
X141192Y150070D01*
X141447Y150560D01*
X141713Y151044D01*
X141991Y151521D01*
X142281Y151991D01*
X142582Y152454D01*
X142894Y152910D01*
X143218Y153357D01*
X143552Y153797D01*
X143897Y154228D01*
X144253Y154650D01*
X144619Y155064D01*
X144994Y155469D01*
X145380Y155864D01*
X145775Y156250D01*
X146180Y156625D01*
X146594Y156991D01*
X147016Y157347D01*
X147447Y157692D01*
X147887Y158026D01*
X148334Y158350D01*
X148790Y158662D01*
X149253Y158963D01*
X149723Y159253D01*
X150200Y159531D01*
X150684Y159797D01*
X151174Y160052D01*
X151670Y160294D01*
X152172Y160524D01*
X152680Y160741D01*
X153192Y160946D01*
X153710Y161139D01*
X154232Y161318D01*
X154759Y161485D01*
X155289Y161639D01*
X155823Y161780D01*
X156360Y161907D01*
X156900Y162022D01*
X157443Y162123D01*
X157989Y162210D01*
X158536Y162285D01*
X159085Y162346D01*
X159635Y162393D01*
X160186Y162427D01*
X160738Y162447D01*
X161290Y162454D01*
X161842Y162447D01*
X162394Y162427D01*
X162945Y162393D01*
X163495Y162346D01*
X164044Y162285D01*
X164591Y162210D01*
X165137Y162123D01*
X165680Y162022D01*
X166220Y161907D01*
X166757Y161780D01*
X167291Y161639D01*
X167821Y161485D01*
X168348Y161318D01*
X168870Y161139D01*
X169388Y160946D01*
X169900Y160741D01*
X170408Y160524D01*
X170910Y160294D01*
X171406Y160052D01*
X171896Y159797D01*
X172380Y159531D01*
X172857Y159253D01*
X173327Y158963D01*
X173790Y158662D01*
X174246Y158350D01*
X174693Y158026D01*
X175133Y157692D01*
X175564Y157347D01*
X175986Y156991D01*
X176400Y156625D01*
X176805Y156250D01*
X177200Y155864D01*
X177586Y155469D01*
X177961Y155064D01*
X178327Y154650D01*
X178683Y154228D01*
X179028Y153797D01*
X179362Y153357D01*
X179686Y152910D01*
X179998Y152454D01*
X180299Y151991D01*
X180589Y151521D01*
X180867Y151044D01*
X181133Y150560D01*
X181388Y150070D01*
X181630Y149574D01*
X181860Y149072D01*
X182077Y148564D01*
X182282Y148052D01*
X182475Y147534D01*
X182654Y147012D01*
X182821Y146485D01*
X182975Y145955D01*
X183116Y145421D01*
X183243Y144884D01*
X183358Y144344D01*
X183459Y143801D01*
X183546Y143255D01*
X183621Y142708D01*
X183682Y142159D01*
X183729Y141609D01*
X183763Y141058D01*
X183783Y140506D01*
X183790Y139954D01*
X183783Y139402D01*
X183763Y138850D01*
X183729Y138299D01*
X183682Y137749D01*
X183621Y137200D01*
X183546Y136653D01*
X183459Y136107D01*
X183358Y135564D01*
X183243Y135024D01*
X183116Y134487D01*
X182975Y133953D01*
X182821Y133423D01*
X182654Y132896D01*
X182475Y132374D01*
X182282Y131856D01*
X182077Y131344D01*
X181860Y130836D01*
X181630Y130334D01*
X181388Y129838D01*
X181133Y129348D01*
X180867Y128864D01*
X180589Y128387D01*
X180299Y127917D01*
X179998Y127454D01*
X179686Y126998D01*
X179362Y126551D01*
X179028Y126111D01*
X178683Y125680D01*
X178327Y125258D01*
X177961Y124844D01*
X177586Y124439D01*
X177200Y124044D01*
X176805Y123658D01*
X176400Y123283D01*
X175986Y122917D01*
X175564Y122561D01*
X175133Y122216D01*
X174693Y121882D01*
X174246Y121558D01*
X173790Y121246D01*
X173327Y120945D01*
X172857Y120655D01*
X172380Y120377D01*
X171896Y120111D01*
X171406Y119856D01*
X170910Y119614D01*
X170408Y119384D01*
X169900Y119167D01*
X169388Y118962D01*
X168870Y118769D01*
X168348Y118590D01*
X167821Y118423D01*
X167291Y118269D01*
X166757Y118128D01*
X166220Y118001D01*
X165680Y117886D01*
X165137Y117785D01*
X164591Y117698D01*
X164044Y117623D01*
X163495Y117562D01*
X162945Y117515D01*
X162394Y117481D01*
X161842Y117461D01*
X161290Y117454D01*
X160738Y117461D01*
X160186Y117481D01*
X159635Y117515D01*
X159085Y117562D01*
X158536Y117623D01*
X157989Y117698D01*
X157443Y117785D01*
X156900Y117886D01*
X156360Y118001D01*
X155823Y118128D01*
X155289Y118269D01*
X154759Y118423D01*
X154232Y118590D01*
X153710Y118769D01*
X153192Y118962D01*
X152680Y119167D01*
X152172Y119384D01*
X151670Y119614D01*
X151174Y119856D01*
X150684Y120111D01*
X150200Y120377D01*
X149723Y120655D01*
X149253Y120945D01*
X148790Y121246D01*
X148334Y121558D01*
X147887Y121882D01*
X147447Y122216D01*
X147016Y122561D01*
X146594Y122917D01*
X146180Y123283D01*
X145775Y123658D01*
X145380Y124044D01*
X144994Y124439D01*
X144619Y124844D01*
X144253Y125258D01*
X143897Y125680D01*
X143552Y126111D01*
X143218Y126551D01*
X142894Y126998D01*
X142582Y127454D01*
X142281Y127917D01*
X141991Y128387D01*
X141713Y128864D01*
X141447Y129348D01*
X141192Y129838D01*
X140950Y130334D01*
X140720Y130836D01*
X140503Y131344D01*
X140298Y131856D01*
X140105Y132374D01*
X139926Y132896D01*
X139759Y133423D01*
X139605Y133953D01*
X139464Y134487D01*
X139337Y135024D01*
X139222Y135564D01*
X139121Y136107D01*
X139034Y136653D01*
X138959Y137200D01*
X138898Y137749D01*
X138851Y138299D01*
X138817Y138850D01*
X138797Y139402D01*
X138790Y139954D01*
X856086Y139827D02*
X856091Y140258D01*
X856107Y140688D01*
X856134Y141118D01*
X856170Y141547D01*
X856218Y141975D01*
X856276Y142402D01*
X856344Y142827D01*
X856423Y143250D01*
X856512Y143672D01*
X856612Y144091D01*
X856722Y144507D01*
X856842Y144921D01*
X856972Y145331D01*
X857112Y145738D01*
X857262Y146142D01*
X857422Y146542D01*
X857591Y146938D01*
X857771Y147329D01*
X857960Y147716D01*
X858158Y148099D01*
X858366Y148476D01*
X858582Y148848D01*
X858808Y149215D01*
X859043Y149576D01*
X859287Y149931D01*
X859539Y150280D01*
X859800Y150622D01*
X860069Y150959D01*
X860346Y151288D01*
X860632Y151611D01*
X860925Y151926D01*
X861225Y152235D01*
X861534Y152535D01*
X861849Y152828D01*
X862172Y153114D01*
X862501Y153391D01*
X862838Y153660D01*
X863180Y153921D01*
X863529Y154173D01*
X863884Y154417D01*
X864245Y154652D01*
X864612Y154878D01*
X864984Y155094D01*
X865361Y155302D01*
X865744Y155500D01*
X866131Y155689D01*
X866522Y155869D01*
X866918Y156038D01*
X867318Y156198D01*
X867722Y156348D01*
X868129Y156488D01*
X868539Y156618D01*
X868953Y156738D01*
X869369Y156848D01*
X869788Y156948D01*
X870210Y157037D01*
X870633Y157116D01*
X871058Y157184D01*
X871485Y157242D01*
X871913Y157290D01*
X872342Y157326D01*
X872772Y157353D01*
X873202Y157369D01*
X873633Y157374D01*
X874064Y157369D01*
X874494Y157353D01*
X874924Y157326D01*
X875353Y157290D01*
X875781Y157242D01*
X876208Y157184D01*
X876633Y157116D01*
X877056Y157037D01*
X877478Y156948D01*
X877897Y156848D01*
X878313Y156738D01*
X878727Y156618D01*
X879137Y156488D01*
X879544Y156348D01*
X879948Y156198D01*
X880348Y156038D01*
X880744Y155869D01*
X881135Y155689D01*
X881522Y155500D01*
X881905Y155302D01*
X882282Y155094D01*
X882654Y154878D01*
X883021Y154652D01*
X883382Y154417D01*
X883737Y154173D01*
X884086Y153921D01*
X884428Y153660D01*
X884765Y153391D01*
X885094Y153114D01*
X885417Y152828D01*
X885732Y152535D01*
X886041Y152235D01*
X886341Y151926D01*
X886634Y151611D01*
X886920Y151288D01*
X887197Y150959D01*
X887466Y150622D01*
X887727Y150280D01*
X887979Y149931D01*
X888223Y149576D01*
X888458Y149215D01*
X888684Y148848D01*
X888900Y148476D01*
X889108Y148099D01*
X889306Y147716D01*
X889495Y147329D01*
X889675Y146938D01*
X889844Y146542D01*
X890004Y146142D01*
X890154Y145738D01*
X890294Y145331D01*
X890424Y144921D01*
X890544Y144507D01*
X890654Y144091D01*
X890754Y143672D01*
X890843Y143250D01*
X890922Y142827D01*
X890990Y142402D01*
X891048Y141975D01*
X891096Y141547D01*
X891132Y141118D01*
X891159Y140688D01*
X891175Y140258D01*
X891180Y139827D01*
X891175Y139396D01*
X891159Y138966D01*
X891132Y138536D01*
X891096Y138107D01*
X891048Y137679D01*
X890990Y137252D01*
X890922Y136827D01*
X890843Y136404D01*
X890754Y135982D01*
X890654Y135563D01*
X890544Y135147D01*
X890424Y134733D01*
X890294Y134323D01*
X890154Y133916D01*
X890004Y133512D01*
X889844Y133112D01*
X889675Y132716D01*
X889495Y132325D01*
X889306Y131938D01*
X889108Y131555D01*
X888900Y131178D01*
X888684Y130806D01*
X888458Y130439D01*
X888223Y130078D01*
X887979Y129723D01*
X887727Y129374D01*
X887466Y129032D01*
X887197Y128695D01*
X886920Y128366D01*
X886634Y128043D01*
X886341Y127728D01*
X886041Y127419D01*
X885732Y127119D01*
X885417Y126826D01*
X885094Y126540D01*
X884765Y126263D01*
X884428Y125994D01*
X884086Y125733D01*
X883737Y125481D01*
X883382Y125237D01*
X883021Y125002D01*
X882654Y124776D01*
X882282Y124560D01*
X881905Y124352D01*
X881522Y124154D01*
X881135Y123965D01*
X880744Y123785D01*
X880348Y123616D01*
X879948Y123456D01*
X879544Y123306D01*
X879137Y123166D01*
X878727Y123036D01*
X878313Y122916D01*
X877897Y122806D01*
X877478Y122706D01*
X877056Y122617D01*
X876633Y122538D01*
X876208Y122470D01*
X875781Y122412D01*
X875353Y122364D01*
X874924Y122328D01*
X874494Y122301D01*
X874064Y122285D01*
X873633Y122280D01*
X873202Y122285D01*
X872772Y122301D01*
X872342Y122328D01*
X871913Y122364D01*
X871485Y122412D01*
X871058Y122470D01*
X870633Y122538D01*
X870210Y122617D01*
X869788Y122706D01*
X869369Y122806D01*
X868953Y122916D01*
X868539Y123036D01*
X868129Y123166D01*
X867722Y123306D01*
X867318Y123456D01*
X866918Y123616D01*
X866522Y123785D01*
X866131Y123965D01*
X865744Y124154D01*
X865361Y124352D01*
X864984Y124560D01*
X864612Y124776D01*
X864245Y125002D01*
X863884Y125237D01*
X863529Y125481D01*
X863180Y125733D01*
X862838Y125994D01*
X862501Y126263D01*
X862172Y126540D01*
X861849Y126826D01*
X861534Y127119D01*
X861225Y127419D01*
X860925Y127728D01*
X860632Y128043D01*
X860346Y128366D01*
X860069Y128695D01*
X859800Y129032D01*
X859539Y129374D01*
X859287Y129723D01*
X859043Y130078D01*
X858808Y130439D01*
X858582Y130806D01*
X858366Y131178D01*
X858158Y131555D01*
X857960Y131938D01*
X857771Y132325D01*
X857591Y132716D01*
X857422Y133112D01*
X857262Y133512D01*
X857112Y133916D01*
X856972Y134323D01*
X856842Y134733D01*
X856722Y135147D01*
X856612Y135563D01*
X856512Y135982D01*
X856423Y136404D01*
X856344Y136827D01*
X856276Y137252D01*
X856218Y137679D01*
X856170Y138107D01*
X856134Y138536D01*
X856107Y138966D01*
X856091Y139396D01*
X856086Y139827D01*
X855959Y659943D02*
X855964Y660374D01*
X855980Y660804D01*
X856007Y661234D01*
X856043Y661663D01*
X856091Y662091D01*
X856149Y662518D01*
X856217Y662943D01*
X856296Y663366D01*
X856385Y663788D01*
X856485Y664207D01*
X856595Y664623D01*
X856715Y665037D01*
X856845Y665447D01*
X856985Y665854D01*
X857135Y666258D01*
X857295Y666658D01*
X857464Y667054D01*
X857644Y667445D01*
X857833Y667832D01*
X858031Y668215D01*
X858239Y668592D01*
X858455Y668964D01*
X858681Y669331D01*
X858916Y669692D01*
X859160Y670047D01*
X859412Y670396D01*
X859673Y670738D01*
X859942Y671075D01*
X860219Y671404D01*
X860505Y671727D01*
X860798Y672042D01*
X861098Y672351D01*
X861407Y672651D01*
X861722Y672944D01*
X862045Y673230D01*
X862374Y673507D01*
X862711Y673776D01*
X863053Y674037D01*
X863402Y674289D01*
X863757Y674533D01*
X864118Y674768D01*
X864485Y674994D01*
X864857Y675210D01*
X865234Y675418D01*
X865617Y675616D01*
X866004Y675805D01*
X866395Y675985D01*
X866791Y676154D01*
X867191Y676314D01*
X867595Y676464D01*
X868002Y676604D01*
X868412Y676734D01*
X868826Y676854D01*
X869242Y676964D01*
X869661Y677064D01*
X870083Y677153D01*
X870506Y677232D01*
X870931Y677300D01*
X871358Y677358D01*
X871786Y677406D01*
X872215Y677442D01*
X872645Y677469D01*
X873075Y677485D01*
X873506Y677490D01*
X873937Y677485D01*
X874367Y677469D01*
X874797Y677442D01*
X875226Y677406D01*
X875654Y677358D01*
X876081Y677300D01*
X876506Y677232D01*
X876929Y677153D01*
X877351Y677064D01*
X877770Y676964D01*
X878186Y676854D01*
X878600Y676734D01*
X879010Y676604D01*
X879417Y676464D01*
X879821Y676314D01*
X880221Y676154D01*
X880617Y675985D01*
X881008Y675805D01*
X881395Y675616D01*
X881778Y675418D01*
X882155Y675210D01*
X882527Y674994D01*
X882894Y674768D01*
X883255Y674533D01*
X883610Y674289D01*
X883959Y674037D01*
X884301Y673776D01*
X884638Y673507D01*
X884967Y673230D01*
X885290Y672944D01*
X885605Y672651D01*
X885914Y672351D01*
X886214Y672042D01*
X886507Y671727D01*
X886793Y671404D01*
X887070Y671075D01*
X887339Y670738D01*
X887600Y670396D01*
X887852Y670047D01*
X888096Y669692D01*
X888331Y669331D01*
X888557Y668964D01*
X888773Y668592D01*
X888981Y668215D01*
X889179Y667832D01*
X889368Y667445D01*
X889548Y667054D01*
X889717Y666658D01*
X889877Y666258D01*
X890027Y665854D01*
X890167Y665447D01*
X890297Y665037D01*
X890417Y664623D01*
X890527Y664207D01*
X890627Y663788D01*
X890716Y663366D01*
X890795Y662943D01*
X890863Y662518D01*
X890921Y662091D01*
X890969Y661663D01*
X891005Y661234D01*
X891032Y660804D01*
X891048Y660374D01*
X891053Y659943D01*
X891048Y659512D01*
X891032Y659082D01*
X891005Y658652D01*
X890969Y658223D01*
X890921Y657795D01*
X890863Y657368D01*
X890795Y656943D01*
X890716Y656520D01*
X890627Y656098D01*
X890527Y655679D01*
X890417Y655263D01*
X890297Y654849D01*
X890167Y654439D01*
X890027Y654032D01*
X889877Y653628D01*
X889717Y653228D01*
X889548Y652832D01*
X889368Y652441D01*
X889179Y652054D01*
X888981Y651671D01*
X888773Y651294D01*
X888557Y650922D01*
X888331Y650555D01*
X888096Y650194D01*
X887852Y649839D01*
X887600Y649490D01*
X887339Y649148D01*
X887070Y648811D01*
X886793Y648482D01*
X886507Y648159D01*
X886214Y647844D01*
X885914Y647535D01*
X885605Y647235D01*
X885290Y646942D01*
X884967Y646656D01*
X884638Y646379D01*
X884301Y646110D01*
X883959Y645849D01*
X883610Y645597D01*
X883255Y645353D01*
X882894Y645118D01*
X882527Y644892D01*
X882155Y644676D01*
X881778Y644468D01*
X881395Y644270D01*
X881008Y644081D01*
X880617Y643901D01*
X880221Y643732D01*
X879821Y643572D01*
X879417Y643422D01*
X879010Y643282D01*
X878600Y643152D01*
X878186Y643032D01*
X877770Y642922D01*
X877351Y642822D01*
X876929Y642733D01*
X876506Y642654D01*
X876081Y642586D01*
X875654Y642528D01*
X875226Y642480D01*
X874797Y642444D01*
X874367Y642417D01*
X873937Y642401D01*
X873506Y642396D01*
X873075Y642401D01*
X872645Y642417D01*
X872215Y642444D01*
X871786Y642480D01*
X871358Y642528D01*
X870931Y642586D01*
X870506Y642654D01*
X870083Y642733D01*
X869661Y642822D01*
X869242Y642922D01*
X868826Y643032D01*
X868412Y643152D01*
X868002Y643282D01*
X867595Y643422D01*
X867191Y643572D01*
X866791Y643732D01*
X866395Y643901D01*
X866004Y644081D01*
X865617Y644270D01*
X865234Y644468D01*
X864857Y644676D01*
X864485Y644892D01*
X864118Y645118D01*
X863757Y645353D01*
X863402Y645597D01*
X863053Y645849D01*
X862711Y646110D01*
X862374Y646379D01*
X862045Y646656D01*
X861722Y646942D01*
X861407Y647235D01*
X861098Y647535D01*
X860798Y647844D01*
X860505Y648159D01*
X860219Y648482D01*
X859942Y648811D01*
X859673Y649148D01*
X859412Y649490D01*
X859160Y649839D01*
X858916Y650194D01*
X858681Y650555D01*
X858455Y650922D01*
X858239Y651294D01*
X858031Y651671D01*
X857833Y652054D01*
X857644Y652441D01*
X857464Y652832D01*
X857295Y653228D01*
X857135Y653628D01*
X856985Y654032D01*
X856845Y654439D01*
X856715Y654849D01*
X856595Y655263D01*
X856485Y655679D01*
X856385Y656098D01*
X856296Y656520D01*
X856217Y656943D01*
X856149Y657368D01*
X856091Y657795D01*
X856043Y658223D01*
X856007Y658652D01*
X855980Y659082D01*
X855964Y659512D01*
X855959Y659943D01*
X358634Y659892D02*
X358639Y660260D01*
X358652Y660628D01*
X358675Y660995D01*
X358706Y661362D01*
X358747Y661728D01*
X358796Y662093D01*
X358855Y662456D01*
X358922Y662818D01*
X358998Y663179D01*
X359084Y663537D01*
X359177Y663893D01*
X359280Y664246D01*
X359391Y664597D01*
X359511Y664945D01*
X359639Y665290D01*
X359776Y665632D01*
X359921Y665971D01*
X360074Y666305D01*
X360236Y666636D01*
X360405Y666963D01*
X360583Y667285D01*
X360768Y667604D01*
X360961Y667917D01*
X361162Y668226D01*
X361370Y668529D01*
X361586Y668827D01*
X361809Y669120D01*
X362039Y669408D01*
X362276Y669690D01*
X362520Y669965D01*
X362770Y670235D01*
X363027Y670499D01*
X363291Y670756D01*
X363561Y671006D01*
X363836Y671250D01*
X364118Y671487D01*
X364406Y671717D01*
X364699Y671940D01*
X364997Y672156D01*
X365300Y672364D01*
X365609Y672565D01*
X365922Y672758D01*
X366241Y672943D01*
X366563Y673121D01*
X366890Y673290D01*
X367221Y673452D01*
X367555Y673605D01*
X367894Y673750D01*
X368236Y673887D01*
X368581Y674015D01*
X368929Y674135D01*
X369280Y674246D01*
X369633Y674349D01*
X369989Y674442D01*
X370347Y674528D01*
X370708Y674604D01*
X371070Y674671D01*
X371433Y674730D01*
X371798Y674779D01*
X372164Y674820D01*
X372531Y674851D01*
X372898Y674874D01*
X373266Y674887D01*
X373634Y674892D01*
X374002Y674887D01*
X374370Y674874D01*
X374737Y674851D01*
X375104Y674820D01*
X375470Y674779D01*
X375835Y674730D01*
X376198Y674671D01*
X376560Y674604D01*
X376921Y674528D01*
X377279Y674442D01*
X377635Y674349D01*
X377988Y674246D01*
X378339Y674135D01*
X378687Y674015D01*
X379032Y673887D01*
X379374Y673750D01*
X379713Y673605D01*
X380047Y673452D01*
X380378Y673290D01*
X380705Y673121D01*
X381027Y672943D01*
X381346Y672758D01*
X381659Y672565D01*
X381968Y672364D01*
X382271Y672156D01*
X382569Y671940D01*
X382862Y671717D01*
X383150Y671487D01*
X383432Y671250D01*
X383707Y671006D01*
X383977Y670756D01*
X384241Y670499D01*
X384498Y670235D01*
X384748Y669965D01*
X384992Y669690D01*
X385229Y669408D01*
X385459Y669120D01*
X385682Y668827D01*
X385898Y668529D01*
X386106Y668226D01*
X386307Y667917D01*
X386500Y667604D01*
X386685Y667285D01*
X386863Y666963D01*
X387032Y666636D01*
X387194Y666305D01*
X387347Y665971D01*
X387492Y665632D01*
X387629Y665290D01*
X387757Y664945D01*
X387877Y664597D01*
X387988Y664246D01*
X388091Y663893D01*
X388184Y663537D01*
X388270Y663179D01*
X388346Y662818D01*
X388413Y662456D01*
X388472Y662093D01*
X388521Y661728D01*
X388562Y661362D01*
X388593Y660995D01*
X388616Y660628D01*
X388629Y660260D01*
X388634Y659892D01*
X388629Y659524D01*
X388616Y659156D01*
X388593Y658789D01*
X388562Y658422D01*
X388521Y658056D01*
X388472Y657691D01*
X388413Y657328D01*
X388346Y656966D01*
X388270Y656605D01*
X388184Y656247D01*
X388091Y655891D01*
X387988Y655538D01*
X387877Y655187D01*
X387757Y654839D01*
X387629Y654494D01*
X387492Y654152D01*
X387347Y653813D01*
X387194Y653479D01*
X387032Y653148D01*
X386863Y652821D01*
X386685Y652499D01*
X386500Y652180D01*
X386307Y651867D01*
X386106Y651558D01*
X385898Y651255D01*
X385682Y650957D01*
X385459Y650664D01*
X385229Y650376D01*
X384992Y650094D01*
X384748Y649819D01*
X384498Y649549D01*
X384241Y649285D01*
X383977Y649028D01*
X383707Y648778D01*
X383432Y648534D01*
X383150Y648297D01*
X382862Y648067D01*
X382569Y647844D01*
X382271Y647628D01*
X381968Y647420D01*
X381659Y647219D01*
X381346Y647026D01*
X381027Y646841D01*
X380705Y646663D01*
X380378Y646494D01*
X380047Y646332D01*
X379713Y646179D01*
X379374Y646034D01*
X379032Y645897D01*
X378687Y645769D01*
X378339Y645649D01*
X377988Y645538D01*
X377635Y645435D01*
X377279Y645342D01*
X376921Y645256D01*
X376560Y645180D01*
X376198Y645113D01*
X375835Y645054D01*
X375470Y645005D01*
X375104Y644964D01*
X374737Y644933D01*
X374370Y644910D01*
X374002Y644897D01*
X373634Y644892D01*
X373266Y644897D01*
X372898Y644910D01*
X372531Y644933D01*
X372164Y644964D01*
X371798Y645005D01*
X371433Y645054D01*
X371070Y645113D01*
X370708Y645180D01*
X370347Y645256D01*
X369989Y645342D01*
X369633Y645435D01*
X369280Y645538D01*
X368929Y645649D01*
X368581Y645769D01*
X368236Y645897D01*
X367894Y646034D01*
X367555Y646179D01*
X367221Y646332D01*
X366890Y646494D01*
X366563Y646663D01*
X366241Y646841D01*
X365922Y647026D01*
X365609Y647219D01*
X365300Y647420D01*
X364997Y647628D01*
X364699Y647844D01*
X364406Y648067D01*
X364118Y648297D01*
X363836Y648534D01*
X363561Y648778D01*
X363291Y649028D01*
X363027Y649285D01*
X362770Y649549D01*
X362520Y649819D01*
X362276Y650094D01*
X362039Y650376D01*
X361809Y650664D01*
X361586Y650957D01*
X361370Y651255D01*
X361162Y651558D01*
X360961Y651867D01*
X360768Y652180D01*
X360583Y652499D01*
X360405Y652821D01*
X360236Y653148D01*
X360074Y653479D01*
X359921Y653813D01*
X359776Y654152D01*
X359639Y654494D01*
X359511Y654839D01*
X359391Y655187D01*
X359280Y655538D01*
X359177Y655891D01*
X359084Y656247D01*
X358998Y656605D01*
X358922Y656966D01*
X358855Y657328D01*
X358796Y657691D01*
X358747Y658056D01*
X358706Y658422D01*
X358675Y658789D01*
X358652Y659156D01*
X358639Y659524D01*
X358634Y659892D01*
X358634Y139827D02*
X358639Y140195D01*
X358652Y140563D01*
X358675Y140930D01*
X358706Y141297D01*
X358747Y141663D01*
X358796Y142028D01*
X358855Y142391D01*
X358922Y142753D01*
X358998Y143114D01*
X359084Y143472D01*
X359177Y143828D01*
X359280Y144181D01*
X359391Y144532D01*
X359511Y144880D01*
X359639Y145225D01*
X359776Y145567D01*
X359921Y145906D01*
X360074Y146240D01*
X360236Y146571D01*
X360405Y146898D01*
X360583Y147220D01*
X360768Y147539D01*
X360961Y147852D01*
X361162Y148161D01*
X361370Y148464D01*
X361586Y148762D01*
X361809Y149055D01*
X362039Y149343D01*
X362276Y149625D01*
X362520Y149900D01*
X362770Y150170D01*
X363027Y150434D01*
X363291Y150691D01*
X363561Y150941D01*
X363836Y151185D01*
X364118Y151422D01*
X364406Y151652D01*
X364699Y151875D01*
X364997Y152091D01*
X365300Y152299D01*
X365609Y152500D01*
X365922Y152693D01*
X366241Y152878D01*
X366563Y153056D01*
X366890Y153225D01*
X367221Y153387D01*
X367555Y153540D01*
X367894Y153685D01*
X368236Y153822D01*
X368581Y153950D01*
X368929Y154070D01*
X369280Y154181D01*
X369633Y154284D01*
X369989Y154377D01*
X370347Y154463D01*
X370708Y154539D01*
X371070Y154606D01*
X371433Y154665D01*
X371798Y154714D01*
X372164Y154755D01*
X372531Y154786D01*
X372898Y154809D01*
X373266Y154822D01*
X373634Y154827D01*
X374002Y154822D01*
X374370Y154809D01*
X374737Y154786D01*
X375104Y154755D01*
X375470Y154714D01*
X375835Y154665D01*
X376198Y154606D01*
X376560Y154539D01*
X376921Y154463D01*
X377279Y154377D01*
X377635Y154284D01*
X377988Y154181D01*
X378339Y154070D01*
X378687Y153950D01*
X379032Y153822D01*
X379374Y153685D01*
X379713Y153540D01*
X380047Y153387D01*
X380378Y153225D01*
X380705Y153056D01*
X381027Y152878D01*
X381346Y152693D01*
X381659Y152500D01*
X381968Y152299D01*
X382271Y152091D01*
X382569Y151875D01*
X382862Y151652D01*
X383150Y151422D01*
X383432Y151185D01*
X383707Y150941D01*
X383977Y150691D01*
X384241Y150434D01*
X384498Y150170D01*
X384748Y149900D01*
X384992Y149625D01*
X385229Y149343D01*
X385459Y149055D01*
X385682Y148762D01*
X385898Y148464D01*
X386106Y148161D01*
X386307Y147852D01*
X386500Y147539D01*
X386685Y147220D01*
X386863Y146898D01*
X387032Y146571D01*
X387194Y146240D01*
X387347Y145906D01*
X387492Y145567D01*
X387629Y145225D01*
X387757Y144880D01*
X387877Y144532D01*
X387988Y144181D01*
X388091Y143828D01*
X388184Y143472D01*
X388270Y143114D01*
X388346Y142753D01*
X388413Y142391D01*
X388472Y142028D01*
X388521Y141663D01*
X388562Y141297D01*
X388593Y140930D01*
X388616Y140563D01*
X388629Y140195D01*
X388634Y139827D01*
X388629Y139459D01*
X388616Y139091D01*
X388593Y138724D01*
X388562Y138357D01*
X388521Y137991D01*
X388472Y137626D01*
X388413Y137263D01*
X388346Y136901D01*
X388270Y136540D01*
X388184Y136182D01*
X388091Y135826D01*
X387988Y135473D01*
X387877Y135122D01*
X387757Y134774D01*
X387629Y134429D01*
X387492Y134087D01*
X387347Y133748D01*
X387194Y133414D01*
X387032Y133083D01*
X386863Y132756D01*
X386685Y132434D01*
X386500Y132115D01*
X386307Y131802D01*
X386106Y131493D01*
X385898Y131190D01*
X385682Y130892D01*
X385459Y130599D01*
X385229Y130311D01*
X384992Y130029D01*
X384748Y129754D01*
X384498Y129484D01*
X384241Y129220D01*
X383977Y128963D01*
X383707Y128713D01*
X383432Y128469D01*
X383150Y128232D01*
X382862Y128002D01*
X382569Y127779D01*
X382271Y127563D01*
X381968Y127355D01*
X381659Y127154D01*
X381346Y126961D01*
X381027Y126776D01*
X380705Y126598D01*
X380378Y126429D01*
X380047Y126267D01*
X379713Y126114D01*
X379374Y125969D01*
X379032Y125832D01*
X378687Y125704D01*
X378339Y125584D01*
X377988Y125473D01*
X377635Y125370D01*
X377279Y125277D01*
X376921Y125191D01*
X376560Y125115D01*
X376198Y125048D01*
X375835Y124989D01*
X375470Y124940D01*
X375104Y124899D01*
X374737Y124868D01*
X374370Y124845D01*
X374002Y124832D01*
X373634Y124827D01*
X373266Y124832D01*
X372898Y124845D01*
X372531Y124868D01*
X372164Y124899D01*
X371798Y124940D01*
X371433Y124989D01*
X371070Y125048D01*
X370708Y125115D01*
X370347Y125191D01*
X369989Y125277D01*
X369633Y125370D01*
X369280Y125473D01*
X368929Y125584D01*
X368581Y125704D01*
X368236Y125832D01*
X367894Y125969D01*
X367555Y126114D01*
X367221Y126267D01*
X366890Y126429D01*
X366563Y126598D01*
X366241Y126776D01*
X365922Y126961D01*
X365609Y127154D01*
X365300Y127355D01*
X364997Y127563D01*
X364699Y127779D01*
X364406Y128002D01*
X364118Y128232D01*
X363836Y128469D01*
X363561Y128713D01*
X363291Y128963D01*
X363027Y129220D01*
X362770Y129484D01*
X362520Y129754D01*
X362276Y130029D01*
X362039Y130311D01*
X361809Y130599D01*
X361586Y130892D01*
X361370Y131190D01*
X361162Y131493D01*
X360961Y131802D01*
X360768Y132115D01*
X360583Y132434D01*
X360405Y132756D01*
X360236Y133083D01*
X360074Y133414D01*
X359921Y133748D01*
X359776Y134087D01*
X359639Y134429D01*
X359511Y134774D01*
X359391Y135122D01*
X359280Y135473D01*
X359177Y135826D01*
X359084Y136182D01*
X358998Y136540D01*
X358922Y136901D01*
X358855Y137263D01*
X358796Y137626D01*
X358747Y137991D01*
X358706Y138357D01*
X358675Y138724D01*
X358652Y139091D01*
X358639Y139459D01*
X358634Y139827D01*
D11*
X87630Y114300D02*
X87630Y668020D01*
X87630Y669290D01*
X87630Y668020D02*
X87624Y668780D01*
X87637Y669540D01*
X87667Y670299D01*
X87717Y671057D01*
X87785Y671814D01*
X87871Y672569D01*
X87976Y673322D01*
X88099Y674072D01*
X88240Y674818D01*
X88400Y675561D01*
X88578Y676300D01*
X88773Y677034D01*
X88987Y677764D01*
X89218Y678487D01*
X89467Y679205D01*
X89733Y679917D01*
X90017Y680622D01*
X90318Y681320D01*
X90635Y682010D01*
X90970Y682693D01*
X91321Y683367D01*
X91688Y684032D01*
X92072Y684688D01*
X92471Y685334D01*
X92886Y685971D01*
X93317Y686597D01*
X93762Y687213D01*
X94223Y687817D01*
X94698Y688410D01*
X95188Y688991D01*
X95691Y689560D01*
X96208Y690117D01*
X96739Y690661D01*
X97283Y691192D01*
X97840Y691709D01*
X98409Y692212D01*
X98990Y692702D01*
X99583Y693177D01*
X100187Y693638D01*
X100803Y694083D01*
X101429Y694514D01*
X102066Y694929D01*
X102712Y695328D01*
X103368Y695712D01*
X104033Y696079D01*
X104707Y696430D01*
X105390Y696765D01*
X106080Y697082D01*
X106778Y697383D01*
X107483Y697667D01*
X108195Y697933D01*
X108913Y698182D01*
X109636Y698413D01*
X110366Y698627D01*
X111100Y698822D01*
X111839Y699000D01*
X112582Y699160D01*
X113328Y699301D01*
X114078Y699424D01*
X114831Y699529D01*
X115586Y699615D01*
X116343Y699683D01*
X117101Y699733D01*
X117860Y699763D01*
X118620Y699776D01*
X119380Y699770D01*
X410210Y699770D01*
X410651Y699757D01*
X411092Y699733D01*
X411531Y699698D01*
X411970Y699653D01*
X412408Y699597D01*
X412844Y699530D01*
X413278Y699453D01*
X413711Y699365D01*
X414141Y699266D01*
X414568Y699157D01*
X414993Y699038D01*
X415415Y698909D01*
X415833Y698769D01*
X416248Y698619D01*
X416659Y698459D01*
X417066Y698289D01*
X417469Y698109D01*
X417867Y697919D01*
X418261Y697720D01*
X418650Y697511D01*
X419033Y697293D01*
X419411Y697066D01*
X419783Y696829D01*
X420150Y696583D01*
X420510Y696329D01*
X420864Y696066D01*
X421212Y695794D01*
X421553Y695514D01*
X421887Y695226D01*
X422213Y694929D01*
X422533Y694625D01*
X422845Y694313D01*
X423149Y693993D01*
X423446Y693667D01*
X423734Y693333D01*
X424014Y692992D01*
X424286Y692644D01*
X424549Y692290D01*
X424803Y691930D01*
X425049Y691563D01*
X425286Y691191D01*
X425513Y690813D01*
X425731Y690430D01*
X425940Y690041D01*
X426139Y689647D01*
X426329Y689249D01*
X426509Y688846D01*
X426679Y688439D01*
X426839Y688028D01*
X426989Y687613D01*
X427129Y687195D01*
X427258Y686773D01*
X427377Y686348D01*
X427486Y685921D01*
X427585Y685491D01*
X427673Y685058D01*
X427750Y684624D01*
X427817Y684188D01*
X427873Y683750D01*
X427918Y683311D01*
X427953Y682872D01*
X427977Y682431D01*
X427990Y681990D01*
X427990Y637540D01*
X427990Y636270D01*
X427990Y637540D02*
X428003Y637069D01*
X428028Y636599D01*
X428064Y636130D01*
X428111Y635661D01*
X428170Y635194D01*
X428240Y634728D01*
X428321Y634264D01*
X428414Y633803D01*
X428518Y633343D01*
X428632Y632887D01*
X428758Y632433D01*
X428895Y631982D01*
X429043Y631535D01*
X429202Y631092D01*
X429371Y630653D01*
X429551Y630217D01*
X429742Y629787D01*
X429943Y629361D01*
X430154Y628940D01*
X430375Y628525D01*
X430607Y628114D01*
X430848Y627710D01*
X431099Y627312D01*
X431360Y626920D01*
X431630Y626534D01*
X431910Y626155D01*
X432198Y625783D01*
X432496Y625418D01*
X432802Y625060D01*
X433117Y624710D01*
X433440Y624368D01*
X433772Y624033D01*
X434112Y623707D01*
X434459Y623389D01*
X434814Y623080D01*
X435177Y622779D01*
X435546Y622488D01*
X435923Y622205D01*
X436306Y621932D01*
X436696Y621668D01*
X437092Y621413D01*
X437495Y621168D01*
X437903Y620934D01*
X438317Y620709D01*
X438736Y620494D01*
X439160Y620289D01*
X439589Y620095D01*
X440022Y619911D01*
X440460Y619738D01*
X440902Y619576D01*
X441348Y619424D01*
X441797Y619284D01*
X442250Y619154D01*
X442706Y619035D01*
X443164Y618927D01*
X443625Y618831D01*
X444088Y618746D01*
X444553Y618672D01*
X445020Y618609D01*
X445488Y618558D01*
X445957Y618518D01*
X446427Y618490D01*
X446898Y618473D01*
X447369Y618467D01*
X447840Y618473D01*
X448310Y618490D01*
X647700Y618490D01*
X648210Y618511D01*
X648720Y618545D01*
X649228Y618592D01*
X649736Y618651D01*
X650241Y618722D01*
X650745Y618805D01*
X651247Y618901D01*
X651746Y619009D01*
X652242Y619129D01*
X652735Y619261D01*
X653225Y619405D01*
X653711Y619561D01*
X654194Y619729D01*
X654672Y619909D01*
X655145Y620100D01*
X655614Y620302D01*
X656078Y620516D01*
X656536Y620741D01*
X656989Y620978D01*
X657436Y621225D01*
X657877Y621483D01*
X658311Y621751D01*
X658738Y622031D01*
X659159Y622320D01*
X659573Y622620D01*
X659979Y622929D01*
X660377Y623249D01*
X660768Y623578D01*
X661150Y623916D01*
X661524Y624264D01*
X661889Y624621D01*
X662246Y624986D01*
X662594Y625360D01*
X662932Y625742D01*
X663261Y626133D01*
X663581Y626531D01*
X663890Y626937D01*
X664190Y627351D01*
X664479Y627772D01*
X664759Y628199D01*
X665027Y628633D01*
X665285Y629074D01*
X665532Y629521D01*
X665769Y629974D01*
X665994Y630432D01*
X666208Y630896D01*
X666410Y631365D01*
X666601Y631838D01*
X666781Y632316D01*
X666949Y632799D01*
X667105Y633285D01*
X667249Y633775D01*
X667381Y634268D01*
X667501Y634764D01*
X667609Y635263D01*
X667705Y635765D01*
X667788Y636269D01*
X667859Y636774D01*
X667918Y637282D01*
X667965Y637790D01*
X667999Y638300D01*
X668020Y638810D01*
X668020Y681990D01*
X668021Y681990D02*
X668050Y682446D01*
X668091Y682901D01*
X668142Y683356D01*
X668205Y683808D01*
X668279Y684260D01*
X668363Y684709D01*
X668459Y685156D01*
X668565Y685601D01*
X668683Y686043D01*
X668811Y686482D01*
X668949Y686917D01*
X669098Y687349D01*
X669258Y687778D01*
X669428Y688202D01*
X669609Y688622D01*
X669799Y689038D01*
X670000Y689449D01*
X670210Y689854D01*
X670431Y690255D01*
X670661Y690650D01*
X670901Y691039D01*
X671150Y691423D01*
X671408Y691800D01*
X671676Y692171D01*
X671952Y692535D01*
X672237Y692892D01*
X672531Y693243D01*
X672833Y693586D01*
X673144Y693921D01*
X673463Y694249D01*
X673789Y694569D01*
X674123Y694881D01*
X674465Y695185D01*
X674814Y695480D01*
X675170Y695767D01*
X675533Y696045D01*
X675903Y696314D01*
X676279Y696574D01*
X676662Y696824D01*
X677050Y697066D01*
X677444Y697297D01*
X677844Y697520D01*
X678249Y697732D01*
X678659Y697934D01*
X679073Y698126D01*
X679493Y698309D01*
X679916Y698480D01*
X680344Y698642D01*
X680776Y698793D01*
X681211Y698933D01*
X681649Y699063D01*
X682090Y699182D01*
X682535Y699291D01*
X682981Y699388D01*
X683430Y699475D01*
X683881Y699550D01*
X684334Y699615D01*
X684788Y699668D01*
X685243Y699711D01*
X685699Y699742D01*
X686156Y699762D01*
X686613Y699771D01*
X687070Y699769D01*
X687070Y699770D02*
X914400Y699770D01*
X914836Y699765D01*
X915272Y699750D01*
X915708Y699723D01*
X916143Y699687D01*
X916576Y699639D01*
X917009Y699581D01*
X917440Y699512D01*
X917869Y699433D01*
X918296Y699343D01*
X918720Y699243D01*
X919142Y699133D01*
X919562Y699012D01*
X919978Y698881D01*
X920391Y698739D01*
X920800Y698588D01*
X921205Y698427D01*
X921607Y698255D01*
X922004Y698074D01*
X922396Y697884D01*
X922784Y697684D01*
X923166Y697474D01*
X923544Y697255D01*
X923916Y697027D01*
X924282Y696790D01*
X924642Y696543D01*
X924996Y696289D01*
X925344Y696025D01*
X925685Y695753D01*
X926020Y695473D01*
X926347Y695185D01*
X926668Y694888D01*
X926981Y694584D01*
X927286Y694273D01*
X927584Y693954D01*
X927874Y693628D01*
X928155Y693295D01*
X928429Y692955D01*
X928694Y692608D01*
X928950Y692255D01*
X929198Y691896D01*
X929437Y691531D01*
X929667Y691160D01*
X929888Y690783D01*
X930099Y690402D01*
X930301Y690015D01*
X930493Y689623D01*
X930676Y689227D01*
X930849Y688827D01*
X931013Y688422D01*
X931166Y688014D01*
X931309Y687601D01*
X931442Y687186D01*
X931565Y686767D01*
X931677Y686346D01*
X931779Y685921D01*
X931871Y685495D01*
X931952Y685066D01*
X932023Y684636D01*
X932083Y684203D01*
X932132Y683770D01*
X932171Y683335D01*
X932200Y682900D01*
X932217Y682464D01*
X932224Y682028D01*
X932220Y681591D01*
X932205Y681155D01*
X932180Y680720D01*
X932180Y472440D01*
X932098Y472355D01*
X932019Y472268D01*
X931943Y472179D01*
X931870Y472087D01*
X931800Y471992D01*
X931733Y471896D01*
X931670Y471797D01*
X931609Y471696D01*
X931552Y471593D01*
X931498Y471489D01*
X931448Y471382D01*
X931401Y471275D01*
X931358Y471165D01*
X931319Y471055D01*
X931283Y470943D01*
X931250Y470830D01*
X931222Y470716D01*
X931197Y470601D01*
X931176Y470485D01*
X931159Y470369D01*
X931145Y470252D01*
X931136Y470135D01*
X931130Y470018D01*
X931128Y469900D01*
X931130Y469782D01*
X931136Y469665D01*
X931145Y469548D01*
X931159Y469431D01*
X931176Y469315D01*
X931197Y469199D01*
X931222Y469084D01*
X931250Y468970D01*
X931283Y468857D01*
X931319Y468745D01*
X931358Y468635D01*
X931401Y468525D01*
X931448Y468418D01*
X931498Y468311D01*
X931552Y468207D01*
X931609Y468104D01*
X931670Y468003D01*
X931733Y467904D01*
X931800Y467808D01*
X931870Y467713D01*
X931943Y467621D01*
X932019Y467532D01*
X932098Y467445D01*
X932180Y467360D01*
X932180Y104140D01*
X932181Y104140D02*
X932119Y103653D01*
X932045Y103168D01*
X931960Y102685D01*
X931863Y102204D01*
X931754Y101725D01*
X931633Y101249D01*
X931501Y100777D01*
X931358Y100307D01*
X931203Y99842D01*
X931037Y99380D01*
X930859Y98922D01*
X930671Y98469D01*
X930471Y98021D01*
X930261Y97577D01*
X930040Y97139D01*
X929808Y96706D01*
X929566Y96280D01*
X929313Y95859D01*
X929051Y95444D01*
X928778Y95036D01*
X928495Y94635D01*
X928203Y94241D01*
X927901Y93854D01*
X927590Y93474D01*
X927269Y93103D01*
X926940Y92739D01*
X926602Y92383D01*
X926255Y92035D01*
X925900Y91697D01*
X925537Y91367D01*
X925166Y91045D01*
X924787Y90733D01*
X924401Y90431D01*
X924007Y90138D01*
X923606Y89854D01*
X923199Y89581D01*
X922785Y89317D01*
X922365Y89063D01*
X921938Y88820D01*
X921506Y88588D01*
X921069Y88366D01*
X920626Y88154D01*
X920178Y87954D01*
X919725Y87764D01*
X919268Y87586D01*
X918806Y87419D01*
X918341Y87263D01*
X917872Y87118D01*
X917399Y86985D01*
X916924Y86864D01*
X916446Y86754D01*
X915965Y86656D01*
X915482Y86570D01*
X914997Y86495D01*
X914510Y86432D01*
X914022Y86381D01*
X913532Y86342D01*
X913042Y86315D01*
X912552Y86300D01*
X912061Y86297D01*
X911570Y86306D01*
X911080Y86327D01*
X910590Y86360D01*
X116840Y86361D02*
X116016Y86476D01*
X115195Y86612D01*
X114377Y86769D01*
X113564Y86945D01*
X112755Y87140D01*
X111951Y87356D01*
X111153Y87591D01*
X110361Y87846D01*
X109575Y88120D01*
X108796Y88413D01*
X108024Y88725D01*
X107261Y89055D01*
X106505Y89405D01*
X105759Y89772D01*
X105021Y90158D01*
X104294Y90562D01*
X103576Y90983D01*
X102869Y91422D01*
X102173Y91878D01*
X101488Y92351D01*
X100815Y92840D01*
X100154Y93346D01*
X99505Y93868D01*
X98870Y94405D01*
X98248Y94958D01*
X97639Y95526D01*
X97045Y96108D01*
X96465Y96705D01*
X95900Y97316D01*
X95350Y97941D01*
X94815Y98579D01*
X94297Y99229D01*
X93794Y99892D01*
X93307Y100568D01*
X92838Y101255D01*
X92385Y101953D01*
X91949Y102662D01*
X91531Y103381D01*
X91130Y104111D01*
X90748Y104850D01*
X90384Y105598D01*
X90038Y106355D01*
X89710Y107120D01*
X89402Y107893D01*
X89112Y108674D01*
X88842Y109461D01*
X88591Y110254D01*
X88359Y111053D01*
X88147Y111858D01*
X87955Y112668D01*
X87783Y113482D01*
X87630Y114300D01*
X710946Y133096D02*
X716026Y138430D01*
X813308Y138430D01*
X819404Y132334D01*
X819404Y115824D01*
X812038Y108458D01*
X733298Y108458D01*
X728218Y103378D01*
X728218Y86360D02*
X910590Y86360D01*
X728218Y86360D02*
X728218Y103378D01*
X710946Y86360D02*
X116840Y86360D01*
X710946Y86360D02*
X710946Y133096D01*
D12*
X87630Y114300D02*
X88265Y111399D01*
X89151Y108564D01*
X90281Y105818D01*
X91645Y103180D01*
X93235Y100671D01*
X95036Y98310D01*
X97037Y96116D01*
X99222Y94104D01*
X101573Y92290D01*
X104074Y90688D01*
X106704Y89310D01*
X109445Y88166D01*
X112275Y87266D01*
X115173Y86616D01*
X116840Y86360D01*
X710946Y86360D01*
X710946Y133096D01*
X716026Y138430D01*
X813308Y138430D01*
X819404Y132334D01*
X819404Y115824D01*
X812038Y108458D01*
X733298Y108458D01*
X728218Y103378D01*
X728218Y86360D01*
X910590Y86360D01*
X912345Y86298D01*
X914099Y86389D01*
X915838Y86632D01*
X917550Y87027D01*
X919220Y87568D01*
X920837Y88254D01*
X922388Y89077D01*
X923861Y90033D01*
X925246Y91114D01*
X926531Y92311D01*
X927707Y93615D01*
X928764Y95017D01*
X929696Y96506D01*
X930494Y98070D01*
X931152Y99698D01*
X931667Y101378D01*
X932033Y103095D01*
X932180Y104140D01*
X932180Y467360D01*
X931968Y467591D01*
X931778Y467840D01*
X931609Y468104D01*
X931464Y468382D01*
X931345Y468671D01*
X931250Y468970D01*
X931182Y469276D01*
X931142Y469587D01*
X931128Y469900D01*
X931142Y470213D01*
X931182Y470524D01*
X931250Y470830D01*
X931345Y471129D01*
X931464Y471418D01*
X931609Y471696D01*
X931778Y471960D01*
X931968Y472209D01*
X932180Y472440D01*
X932180Y680720D01*
X932221Y682273D01*
X932127Y683823D01*
X931898Y685359D01*
X931536Y686869D01*
X931043Y688342D01*
X930424Y689767D01*
X929684Y691132D01*
X928827Y692427D01*
X927861Y693643D01*
X926792Y694770D01*
X925629Y695799D01*
X924381Y696723D01*
X923057Y697535D01*
X921667Y698229D01*
X920222Y698798D01*
X918733Y699240D01*
X917211Y699550D01*
X915668Y699726D01*
X914400Y699770D01*
X687070Y699770D01*
X685434Y699726D01*
X683808Y699539D01*
X682204Y699212D01*
X680635Y698746D01*
X679112Y698145D01*
X677648Y697413D01*
X676253Y696557D01*
X674938Y695583D01*
X673713Y694497D01*
X672587Y693309D01*
X671569Y692027D01*
X670667Y690662D01*
X669887Y689223D01*
X669236Y687721D01*
X668717Y686168D01*
X668336Y684577D01*
X668096Y682958D01*
X668020Y681990D01*
X668020Y638810D01*
X667885Y636986D01*
X667591Y635181D01*
X667142Y633408D01*
X666539Y631681D01*
X665788Y630014D01*
X664895Y628418D01*
X663866Y626906D01*
X662709Y625489D01*
X661433Y624179D01*
X660048Y622984D01*
X658564Y621915D01*
X656993Y620980D01*
X655346Y620185D01*
X653635Y619537D01*
X651875Y619040D01*
X650078Y618698D01*
X648259Y618514D01*
X647700Y618490D01*
X448310Y618490D01*
X446620Y618481D01*
X444935Y618620D01*
X443269Y618904D01*
X441634Y619333D01*
X440043Y619903D01*
X438507Y620609D01*
X437039Y621446D01*
X435649Y622409D01*
X434349Y623488D01*
X433147Y624677D01*
X432054Y625966D01*
X431077Y627346D01*
X430224Y628805D01*
X429502Y630333D01*
X428915Y631918D01*
X428469Y633549D01*
X428167Y635212D01*
X428011Y636895D01*
X427990Y637540D01*
X427990Y681990D01*
X427893Y683567D01*
X427659Y685129D01*
X427290Y686664D01*
X426788Y688162D01*
X426157Y689610D01*
X425403Y690998D01*
X424531Y692315D01*
X423547Y693551D01*
X422459Y694696D01*
X421276Y695742D01*
X420006Y696681D01*
X418659Y697506D01*
X417245Y698210D01*
X415775Y698789D01*
X414260Y699237D01*
X412712Y699551D01*
X411143Y699729D01*
X410210Y699770D01*
X119380Y699770D01*
X116666Y699707D01*
X113967Y699408D01*
X111305Y698874D01*
X108700Y698111D01*
X106171Y697123D01*
X103737Y695919D01*
X101418Y694507D01*
X99231Y692899D01*
X97192Y691106D01*
X95318Y689142D01*
X93621Y687022D01*
X92116Y684762D01*
X90814Y682380D01*
X89724Y679894D01*
X88855Y677322D01*
X88213Y674683D01*
X87804Y671999D01*
X87630Y669290D01*
X87630Y668020D01*
X87630Y114300D01*
X183790Y659261D02*
X183720Y658000D01*
X183578Y656745D01*
X183367Y655501D01*
X183086Y654270D01*
X182736Y653056D01*
X182319Y651865D01*
X181836Y650698D01*
X181288Y649561D01*
X180678Y648456D01*
X180006Y647387D01*
X179275Y646357D01*
X178488Y645370D01*
X177647Y644428D01*
X176754Y643535D01*
X175812Y642694D01*
X174825Y641907D01*
X173796Y641176D01*
X172726Y640504D01*
X171621Y639894D01*
X170484Y639346D01*
X169317Y638863D01*
X168126Y638446D01*
X166912Y638096D01*
X165681Y637815D01*
X164437Y637604D01*
X163182Y637462D01*
X161921Y637392D01*
X160659Y637392D01*
X159398Y637462D01*
X158143Y637604D01*
X156899Y637815D01*
X155668Y638096D01*
X154454Y638446D01*
X153263Y638863D01*
X152096Y639346D01*
X150959Y639894D01*
X149854Y640504D01*
X148785Y641176D01*
X147755Y641907D01*
X146768Y642694D01*
X145826Y643535D01*
X144933Y644428D01*
X144092Y645370D01*
X143305Y646357D01*
X142574Y647387D01*
X141902Y648456D01*
X141292Y649561D01*
X140744Y650698D01*
X140261Y651865D01*
X139844Y653056D01*
X139494Y654270D01*
X139213Y655501D01*
X139002Y656745D01*
X138860Y658000D01*
X138790Y659261D01*
X138790Y660523D01*
X138860Y661784D01*
X139002Y663039D01*
X139213Y664283D01*
X139494Y665514D01*
X139844Y666728D01*
X140261Y667919D01*
X140744Y669086D01*
X141292Y670223D01*
X141902Y671328D01*
X142574Y672398D01*
X143305Y673427D01*
X144092Y674414D01*
X144933Y675356D01*
X145826Y676249D01*
X146768Y677090D01*
X147755Y677877D01*
X148785Y678608D01*
X149854Y679280D01*
X150959Y679890D01*
X152096Y680438D01*
X153263Y680921D01*
X154454Y681338D01*
X155668Y681688D01*
X156899Y681969D01*
X158143Y682180D01*
X159398Y682322D01*
X160659Y682392D01*
X161921Y682392D01*
X163182Y682322D01*
X164437Y682180D01*
X165681Y681969D01*
X166912Y681688D01*
X168126Y681338D01*
X169317Y680921D01*
X170484Y680438D01*
X171621Y679890D01*
X172726Y679280D01*
X173796Y678608D01*
X174825Y677877D01*
X175812Y677090D01*
X176754Y676249D01*
X177647Y675356D01*
X178488Y674414D01*
X179275Y673427D01*
X180006Y672398D01*
X180678Y671328D01*
X181288Y670223D01*
X181836Y669086D01*
X182319Y667919D01*
X182736Y666728D01*
X183086Y665514D01*
X183367Y664283D01*
X183578Y663039D01*
X183720Y661784D01*
X183790Y660523D01*
X183790Y659261D01*
X183790Y139323D02*
X183720Y138062D01*
X183578Y136807D01*
X183367Y135563D01*
X183086Y134332D01*
X182736Y133118D01*
X182319Y131927D01*
X181836Y130760D01*
X181288Y129623D01*
X180678Y128518D01*
X180006Y127449D01*
X179275Y126419D01*
X178488Y125432D01*
X177647Y124490D01*
X176754Y123597D01*
X175812Y122756D01*
X174825Y121969D01*
X173796Y121238D01*
X172726Y120566D01*
X171621Y119956D01*
X170484Y119408D01*
X169317Y118925D01*
X168126Y118508D01*
X166912Y118158D01*
X165681Y117877D01*
X164437Y117666D01*
X163182Y117524D01*
X161921Y117454D01*
X160659Y117454D01*
X159398Y117524D01*
X158143Y117666D01*
X156899Y117877D01*
X155668Y118158D01*
X154454Y118508D01*
X153263Y118925D01*
X152096Y119408D01*
X150959Y119956D01*
X149854Y120566D01*
X148785Y121238D01*
X147755Y121969D01*
X146768Y122756D01*
X145826Y123597D01*
X144933Y124490D01*
X144092Y125432D01*
X143305Y126419D01*
X142574Y127449D01*
X141902Y128518D01*
X141292Y129623D01*
X140744Y130760D01*
X140261Y131927D01*
X139844Y133118D01*
X139494Y134332D01*
X139213Y135563D01*
X139002Y136807D01*
X138860Y138062D01*
X138790Y139323D01*
X138790Y140585D01*
X138860Y141846D01*
X139002Y143101D01*
X139213Y144345D01*
X139494Y145576D01*
X139844Y146790D01*
X140261Y147981D01*
X140744Y149148D01*
X141292Y150285D01*
X141902Y151390D01*
X142574Y152460D01*
X143305Y153489D01*
X144092Y154476D01*
X144933Y155418D01*
X145826Y156311D01*
X146768Y157152D01*
X147755Y157939D01*
X148785Y158670D01*
X149854Y159342D01*
X150959Y159952D01*
X152096Y160500D01*
X153263Y160983D01*
X154454Y161400D01*
X155668Y161750D01*
X156899Y162031D01*
X158143Y162242D01*
X159398Y162384D01*
X160659Y162454D01*
X161921Y162454D01*
X163182Y162384D01*
X164437Y162242D01*
X165681Y162031D01*
X166912Y161750D01*
X168126Y161400D01*
X169317Y160983D01*
X170484Y160500D01*
X171621Y159952D01*
X172726Y159342D01*
X173796Y158670D01*
X174825Y157939D01*
X175812Y157152D01*
X176754Y156311D01*
X177647Y155418D01*
X178488Y154476D01*
X179275Y153489D01*
X180006Y152460D01*
X180678Y151390D01*
X181288Y150285D01*
X181836Y149148D01*
X182319Y147981D01*
X182736Y146790D01*
X183086Y145576D01*
X183367Y144345D01*
X183578Y143101D01*
X183720Y141846D01*
X183790Y140585D01*
X183790Y139323D01*
X891180Y139253D02*
X891105Y138106D01*
X890955Y136967D01*
X890731Y135840D01*
X890434Y134731D01*
X890065Y133643D01*
X889625Y132581D01*
X889117Y131551D01*
X888542Y130556D01*
X887904Y129601D01*
X887205Y128689D01*
X886447Y127825D01*
X885635Y127013D01*
X884771Y126255D01*
X883860Y125556D01*
X882904Y124918D01*
X881909Y124343D01*
X880879Y123835D01*
X879817Y123395D01*
X878730Y123026D01*
X877620Y122729D01*
X876493Y122505D01*
X875354Y122355D01*
X874207Y122280D01*
X873059Y122280D01*
X871912Y122355D01*
X870773Y122505D01*
X869646Y122729D01*
X868537Y123026D01*
X867449Y123395D01*
X866387Y123835D01*
X865357Y124343D01*
X864362Y124918D01*
X863407Y125556D01*
X862495Y126255D01*
X861631Y127013D01*
X860819Y127825D01*
X860061Y128689D01*
X859362Y129601D01*
X858724Y130556D01*
X858149Y131551D01*
X857641Y132581D01*
X857201Y133643D01*
X856832Y134731D01*
X856535Y135840D01*
X856311Y136967D01*
X856161Y138106D01*
X856086Y139253D01*
X856086Y140401D01*
X856161Y141548D01*
X856311Y142687D01*
X856535Y143814D01*
X856832Y144924D01*
X857201Y146011D01*
X857641Y147073D01*
X858149Y148103D01*
X858724Y149098D01*
X859362Y150054D01*
X860061Y150965D01*
X860819Y151829D01*
X861631Y152641D01*
X862495Y153399D01*
X863407Y154098D01*
X864362Y154736D01*
X865357Y155311D01*
X866387Y155819D01*
X867449Y156259D01*
X868537Y156628D01*
X869646Y156925D01*
X870773Y157149D01*
X871912Y157299D01*
X873059Y157374D01*
X874207Y157374D01*
X875354Y157299D01*
X876493Y157149D01*
X877620Y156925D01*
X878730Y156628D01*
X879817Y156259D01*
X880879Y155819D01*
X881909Y155311D01*
X882904Y154736D01*
X883860Y154098D01*
X884771Y153399D01*
X885635Y152641D01*
X886447Y151829D01*
X887205Y150965D01*
X887904Y150054D01*
X888542Y149098D01*
X889117Y148103D01*
X889625Y147073D01*
X890065Y146011D01*
X890434Y144924D01*
X890731Y143814D01*
X890955Y142687D01*
X891105Y141548D01*
X891180Y140401D01*
X891180Y139253D01*
X891053Y659368D02*
X890978Y658222D01*
X890828Y657083D01*
X890604Y655956D01*
X890307Y654846D01*
X889938Y653758D01*
X889498Y652697D01*
X888990Y651667D01*
X888415Y650672D01*
X887777Y649716D01*
X887078Y648805D01*
X886320Y647941D01*
X885508Y647129D01*
X884644Y646371D01*
X883733Y645672D01*
X882777Y645033D01*
X881782Y644459D01*
X880752Y643951D01*
X879690Y643511D01*
X878603Y643142D01*
X877493Y642845D01*
X876366Y642620D01*
X875227Y642471D01*
X874080Y642395D01*
X872932Y642395D01*
X871785Y642471D01*
X870646Y642620D01*
X869519Y642845D01*
X868410Y643142D01*
X867322Y643511D01*
X866260Y643951D01*
X865230Y644459D01*
X864235Y645033D01*
X863280Y645672D01*
X862368Y646371D01*
X861504Y647129D01*
X860692Y647941D01*
X859934Y648805D01*
X859235Y649716D01*
X858597Y650672D01*
X858022Y651667D01*
X857514Y652697D01*
X857074Y653758D01*
X856705Y654846D01*
X856408Y655956D01*
X856184Y657083D01*
X856034Y658222D01*
X855959Y659368D01*
X855959Y660517D01*
X856034Y661664D01*
X856184Y662803D01*
X856408Y663930D01*
X856705Y665039D01*
X857074Y666127D01*
X857514Y667189D01*
X858022Y668219D01*
X858597Y669214D01*
X859235Y670169D01*
X859934Y671081D01*
X860692Y671945D01*
X861504Y672757D01*
X862368Y673514D01*
X863280Y674214D01*
X864235Y674852D01*
X865230Y675427D01*
X866260Y675935D01*
X867322Y676374D01*
X868410Y676744D01*
X869519Y677041D01*
X870646Y677265D01*
X871785Y677415D01*
X872932Y677490D01*
X874080Y677490D01*
X875227Y677415D01*
X876366Y677265D01*
X877493Y677041D01*
X878603Y676744D01*
X879690Y676374D01*
X880752Y675935D01*
X881782Y675427D01*
X882777Y674852D01*
X883733Y674214D01*
X884644Y673514D01*
X885508Y672757D01*
X886320Y671945D01*
X887078Y671081D01*
X887777Y670169D01*
X888415Y669214D01*
X888990Y668219D01*
X889498Y667189D01*
X889938Y666127D01*
X890307Y665039D01*
X890604Y663930D01*
X890828Y662803D01*
X890978Y661664D01*
X891053Y660517D01*
X891053Y659368D01*
X388634Y659356D02*
X388558Y658288D01*
X388405Y657227D01*
X388177Y656180D01*
X387875Y655152D01*
X387501Y654148D01*
X387056Y653173D01*
X386542Y652233D01*
X385963Y651332D01*
X385321Y650474D01*
X384619Y649664D01*
X383862Y648907D01*
X383052Y648205D01*
X382194Y647563D01*
X381293Y646984D01*
X380353Y646470D01*
X379378Y646025D01*
X378374Y645651D01*
X377346Y645349D01*
X376299Y645121D01*
X375238Y644968D01*
X374170Y644892D01*
X373098Y644892D01*
X372030Y644968D01*
X370969Y645121D01*
X369922Y645349D01*
X368894Y645651D01*
X367890Y646025D01*
X366915Y646470D01*
X365975Y646984D01*
X365074Y647563D01*
X364216Y648205D01*
X363406Y648907D01*
X362649Y649664D01*
X361947Y650474D01*
X361305Y651332D01*
X360726Y652233D01*
X360212Y653173D01*
X359767Y654148D01*
X359393Y655152D01*
X359091Y656180D01*
X358863Y657227D01*
X358710Y658288D01*
X358634Y659356D01*
X358634Y660428D01*
X358710Y661496D01*
X358863Y662557D01*
X359091Y663604D01*
X359393Y664632D01*
X359767Y665636D01*
X360212Y666611D01*
X360726Y667551D01*
X361305Y668452D01*
X361947Y669310D01*
X362649Y670120D01*
X363406Y670877D01*
X364216Y671579D01*
X365074Y672221D01*
X365975Y672800D01*
X366915Y673314D01*
X367890Y673759D01*
X368894Y674133D01*
X369922Y674435D01*
X370969Y674663D01*
X372030Y674816D01*
X373098Y674892D01*
X374170Y674892D01*
X375238Y674816D01*
X376299Y674663D01*
X377346Y674435D01*
X378374Y674133D01*
X379378Y673759D01*
X380353Y673314D01*
X381293Y672800D01*
X382194Y672221D01*
X383052Y671579D01*
X383862Y670877D01*
X384619Y670120D01*
X385321Y669310D01*
X385963Y668452D01*
X386542Y667551D01*
X387056Y666611D01*
X387501Y665636D01*
X387875Y664632D01*
X388177Y663604D01*
X388405Y662557D01*
X388558Y661496D01*
X388634Y660428D01*
X388634Y659356D01*
X388634Y139291D02*
X388558Y138223D01*
X388405Y137162D01*
X388177Y136115D01*
X387875Y135087D01*
X387501Y134083D01*
X387056Y133108D01*
X386542Y132168D01*
X385963Y131267D01*
X385321Y130409D01*
X384619Y129599D01*
X383862Y128842D01*
X383052Y128140D01*
X382194Y127498D01*
X381293Y126919D01*
X380353Y126405D01*
X379378Y125960D01*
X378374Y125586D01*
X377346Y125284D01*
X376299Y125056D01*
X375238Y124903D01*
X374170Y124827D01*
X373098Y124827D01*
X372030Y124903D01*
X370969Y125056D01*
X369922Y125284D01*
X368894Y125586D01*
X367890Y125960D01*
X366915Y126405D01*
X365975Y126919D01*
X365074Y127498D01*
X364216Y128140D01*
X363406Y128842D01*
X362649Y129599D01*
X361947Y130409D01*
X361305Y131267D01*
X360726Y132168D01*
X360212Y133108D01*
X359767Y134083D01*
X359393Y135087D01*
X359091Y136115D01*
X358863Y137162D01*
X358710Y138223D01*
X358634Y139291D01*
X358634Y140363D01*
X358710Y141431D01*
X358863Y142492D01*
X359091Y143539D01*
X359393Y144567D01*
X359767Y145571D01*
X360212Y146546D01*
X360726Y147486D01*
X361305Y148387D01*
X361947Y149245D01*
X362649Y150055D01*
X363406Y150812D01*
X364216Y151514D01*
X365074Y152156D01*
X365975Y152735D01*
X366915Y153249D01*
X367890Y153694D01*
X368894Y154068D01*
X369922Y154370D01*
X370969Y154598D01*
X372030Y154751D01*
X373098Y154827D01*
X374170Y154827D01*
X375238Y154751D01*
X376299Y154598D01*
X377346Y154370D01*
X378374Y154068D01*
X379378Y153694D01*
X380353Y153249D01*
X381293Y152735D01*
X382194Y152156D01*
X383052Y151514D01*
X383862Y150812D01*
X384619Y150055D01*
X385321Y149245D01*
X385963Y148387D01*
X386542Y147486D01*
X387056Y146546D01*
X387501Y145571D01*
X387875Y144567D01*
X388177Y143539D01*
X388405Y142492D01*
X388558Y141431D01*
X388634Y140363D01*
X388634Y139291D01*
M02*
